<svg xmlns="http://www.w3.org/2000/svg" xmlns:xlink="http://www.w3.org/1999/xlink" width="24" height="24" viewBox="0 0 24 24">
  <defs>
    <path id="calendar-a" d="M14.667,1.5 L12.5,1.5 L12.5,0.5 C12.5,0.2235 12.2765,0 12,0 C11.7235,0 11.5,0.2235 11.5,0.5 L11.5,1.5 L8.5,1.5 L8.5,0.5 C8.5,0.2235 8.276,0 8,0 C7.724,0 7.5,0.2235 7.5,0.5 L7.5,1.5 L4.5,1.5 L4.5,0.5 C4.5,0.2235 4.276,0 4,0 C3.724,0 3.5,0.2235 3.5,0.5 L3.5,1.5 L1.3335,1.5 C0.597,1.5 0,2.0965 0,2.833 L0,14.6665 C0,15.403 0.597,16 1.3335,16 L14.667,16 C15.4035,16 16,15.403 16,14.6665 L16,2.833 C16,2.0965 15.4035,1.5 14.667,1.5 Z M15,14.6665 C15,14.8505 14.8505,15 14.667,15 L1.3335,15 C1.1495,15 1,14.8505 1,14.6665 L1,2.833 C1,2.6495 1.1495,2.5 1.3335,2.5 L3.5,2.5 L3.5,3.5 C3.5,3.7765 3.724,4 4,4 C4.276,4 4.5,3.7765 4.5,3.5 L4.5,2.5 L7.5,2.5 L7.5,3.5 C7.5,3.7765 7.724,4 8,4 C8.276,4 8.5,3.7765 8.5,3.5 L8.5,2.5 L11.5,2.5 L11.5,3.5 C11.5,3.7765 11.7235,4 12,4 C12.2765,4 12.5,3.7765 12.5,3.5 L12.5,2.5 L14.667,2.5 C14.8505,2.5 15,2.6495 15,2.833 L15,14.6665 Z M4,5 L4,7 L6,7 L6,5 L4,5 Z M4,8 L4,10 L6,10 L6,8 L4,8 Z M4,11 L4,13 L6,13 L6,11 L4,11 Z M7,11 L7,13 L9,13 L9,11 L7,11 Z M7,8 L7,10 L9,10 L9,8 L7,8 Z M7,5 L7,7 L9,7 L9,5 L7,5 Z M10,11 L10,13 L12,13 L12,11 L10,11 Z M10,8 L10,10 L12,10 L12,8 L10,8 Z M10,5 L10,7 L12,7 L12,5 L10,5 Z"/>
  </defs>
  <g fill-rule="evenodd" transform="translate(4 4)">
    <mask id="calendar-b">
      <use xlink:href="#calendar-a"/>
    </mask>
    <use fill-rule="nonzero" xlink:href="#calendar-a"/>
  </g>
</svg>
