<svg xmlns="http://www.w3.org/2000/svg" xmlns:xlink="http://www.w3.org/1999/xlink" width="24" height="24" viewBox="0 0 24 24">
  <defs>
    <path id="camera-a" d="M16.6,3.46153846 L16.6,2.83653846 C17.4316463,2.83653846 18.1584357,3.14541622 18.7443751,3.74637972 C19.3273103,4.34426201 19.625,5.08110758 19.625,5.92307692 L19.625,14.5384615 C19.625,15.3804309 19.3273103,16.1172764 18.7443751,16.7151587 C18.1584357,17.3161222 17.4316463,17.625 16.6,17.625 L3.4,17.625 C2.56835369,17.625 1.84156433,17.3161222 1.25562491,16.7151587 C0.672689678,16.1172764 0.375,15.3804309 0.375,14.5384615 L0.375,5.92307692 C0.375,5.08110758 0.672689678,4.34426201 1.25562491,3.74637972 C1.84156433,3.14541622 2.56835369,2.83653846 3.4,2.83653846 L5.06306248,2.83653846 L5.39350974,1.93282579 C5.55746139,1.4991615 5.85261929,1.1310989 6.26416485,0.834376536 C6.68202325,0.533102645 7.13144672,0.375 7.6,0.375 L12.4,0.375 C12.8685533,0.375 13.3179767,0.533102645 13.7358351,0.834376536 C14.1473807,1.1310989 14.4425386,1.4991615 14.6088701,1.93922608 L14.9369499,2.83653846 L16.6,2.83653846 L16.6,3.46153846 Z M16.6,3.46153846 L16.6,4.08653846 L14.0630501,4.08653846 L13.9130049,3.67615854 L13.4372597,2.37486651 C13.3637114,2.18032568 13.2244943,2.00672161 13.0047899,1.84831577 C12.7913983,1.69446146 12.5939467,1.625 12.4,1.625 L7.6,1.625 C7.40605328,1.625 7.20860175,1.69446146 6.99521015,1.84831577 C6.77550571,2.00672161 6.63628861,2.18032568 6.56512008,2.36846623 L5.93694992,4.08653846 L3.4,4.08653846 C2.90664631,4.08653846 2.50218567,4.25842994 2.15062509,4.61900489 C1.79606032,4.98266106 1.625,5.40607191 1.625,5.92307692 L1.625,14.5384615 C1.625,15.0554666 1.79606032,15.4788774 2.15062509,15.8425336 C2.50218567,16.2031085 2.90664631,16.375 3.4,16.375 L16.6,16.375 C17.0933537,16.375 17.4978143,16.2031085 17.8493749,15.8425336 C18.2039397,15.4788774 18.375,15.0554666 18.375,14.5384615 L18.375,5.92307692 C18.375,5.40607191 18.2039397,4.98266106 17.8493749,4.61900489 C17.4978143,4.25842994 17.0933537,4.08653846 16.6,4.08653846 L16.6,3.46153846 Z M10,14.5384615 L10,15.0384615 C8.7082553,15.0384615 7.59031881,14.5620694 6.67481243,13.6230885 C5.76170761,12.6865708 5.3,11.5468187 5.3,10.2307692 C5.3,8.91471974 5.76170761,7.7749677 6.67481243,6.83844993 C7.59031881,5.89946903 8.7082553,5.42307692 10,5.42307692 C11.2917447,5.42307692 12.4096812,5.89946903 13.3251876,6.83844993 C14.2382924,7.7749677 14.7,8.91471974 14.7,10.2307692 C14.7,11.5468187 14.2382924,12.6865708 13.3251876,13.6230885 C12.4096812,14.5620694 11.2917447,15.0384615 10,15.0384615 L10,14.5384615 Z M10,14.5384615 L10,14.0384615 C11.0207553,14.0384615 11.8809438,13.6719049 12.6091874,12.9249884 C13.3398326,12.1756087 13.7,11.2865146 13.7,10.2307692 C13.7,9.17502385 13.3398326,8.28592974 12.6091874,7.53655007 C11.8809438,6.78963354 11.0207553,6.42307692 10,6.42307692 C8.9792447,6.42307692 8.11905619,6.78963354 7.39081257,7.53655007 C6.66016739,8.28592974 6.3,9.17502385 6.3,10.2307692 C6.3,11.2865146 6.66016739,12.1756087 7.39081257,12.9249884 C8.11905619,13.6719049 8.9792447,14.0384615 10,14.0384615 L10,14.5384615 Z M10,7.46153846 C10.74375,7.46153846 11.3796875,7.73237179 11.9078125,8.27403846 C12.4359375,8.81570513 12.7,9.46794872 12.7,10.2307692 C12.7,10.9935897 12.4359375,11.6458333 11.9078125,12.1875 C11.3796875,12.7291667 10.74375,13 10,13 C9.25625,13 8.6203125,12.7291667 8.0921875,12.1875 C7.5640625,11.6458333 7.3,10.9935897 7.3,10.2307692 C7.3,9.46794872 7.5640625,8.81570513 8.0921875,8.27403846 C8.6203125,7.73237179 9.25625,7.46153846 10,7.46153846 Z"/>
  </defs>
  <g fill="currentColor" fill-rule="evenodd" transform="translate(2 3)">
    <g>
      <use xlink:href="#camera-a"/>
    </g>
  </g>
</svg>
