<svg xmlns="http://www.w3.org/2000/svg" xmlns:xlink="http://www.w3.org/1999/xlink" width="24" height="24" viewBox="0 0 24 24">
  <defs>
    <path id="feedback-a" d="M11.5538018,18.0802579 C11.5446308,18.0906286 11.5346005,18.0990601 11.5238095,18.1052911 C10.5326862,18.2607406 8.52656592,18.9074017 4.85714286,19.9859966 C4.18678407,20.0886303 3.77691303,19.6121691 3.9047619,19.0456439 L4.69782338,15.9134622 C3.00684156,14.7251264 2,13.1656502 2,11.5228219 C2,7.10443779 6.51277596,4 12.4761905,4 C17.487224,4 22,7.10443779 22,11.5228219 C22,15.0008533 17.487224,18.1052911 12.4761905,18.1052911 C12.1646222,18.1052911 11.8570137,18.0968169 11.5538018,18.0802579 Z M8,11.9929983 C8.55228475,11.9929983 9,11.5456749 9,10.9938735 C9,10.4420721 8.55228475,9.99474873 8,9.99474873 C7.44771525,9.99474873 7,10.4420721 7,10.9938735 C7,11.5456749 7.44771525,11.9929983 8,11.9929983 Z M12,11.9929983 C12.5522847,11.9929983 13,11.5456749 13,10.9938735 C13,10.4420721 12.5522847,9.99474873 12,9.99474873 C11.4477153,9.99474873 11,10.4420721 11,10.9938735 C11,11.5456749 11.4477153,11.9929983 12,11.9929983 Z M16,11.9929983 C16.5522847,11.9929983 17,11.5456749 17,10.9938735 C17,10.4420721 16.5522847,9.99474873 16,9.99474873 C15.4477153,9.99474873 15,10.4420721 15,10.9938735 C15,11.5456749 15.4477153,11.9929983 16,11.9929983 Z"/>
  </defs>
  <g fill-rule="evenodd">
    <g fill-rule="nonzero">
      <use xlink:href="#feedback-a"/>
      <use filter="url(#feedback-b)"/>
    </g>
    <!-- Removed <mask> because Safari would render this SVG as a square. See here for more info: https://github.com/thebeetoken/beenest/pull/445 -->
  </g>
</svg>
