<svg xmlns="http://www.w3.org/2000/svg" xmlns:xlink="http://www.w3.org/1999/xlink" width="24" height="24" viewBox="0 0 24 24">
  <defs>
    <path id="earn-a" d="M12,21 C7.02943725,21 3,16.9705627 3,12 C3,7.02943725 7.02943725,3 12,3 C16.9705627,3 21,7.02943725 21,12 C21,16.9705627 16.9705627,21 12,21 Z M12,19.875 C16.3492424,19.875 19.875,16.3492424 19.875,12 C19.875,7.6507576 16.3492424,4.125 12,4.125 C7.6507576,4.125 4.125,7.6507576 4.125,12 C4.125,16.3492424 7.6507576,19.875 12,19.875 Z M15.234,13.708 C15.234,14.3400032 14.9960024,14.8759978 14.52,15.316 C14.0439976,15.7560022 13.3540045,16.0119996 12.45,16.084 L12.45,17.056 C12.45,17.2680773 12.2780773,17.44 12.066,17.44 C11.8539227,17.44 11.682,17.2680773 11.682,17.056 L11.682,16.084 C11.0979971,16.0519998 10.5440026,15.9420009 10.02,15.754 C9.78242218,15.6687622 9.5130857,15.5314144 9.21199054,15.3419567 L9.21200132,15.3419396 C8.9531302,15.1790505 8.85691549,14.8483403 8.988,14.572 C9.09181043,14.3531564 9.35337321,14.2599036 9.57221681,14.363714 C9.58992252,14.3721129 9.60704539,14.381689 9.6234703,14.392378 C9.88084995,14.5599229 10.1070337,14.6817859 10.302,14.758 C10.7420022,14.9300009 11.2019976,15.0319998 11.682,15.064 L11.682,12.28 C11.1219972,12.1439993 10.6560019,11.9960008 10.284,11.836 C9.91199814,11.6759992 9.60000126,11.4400016 9.348,11.128 C9.09599874,10.8159984 8.97,10.4080025 8.97,9.904 C8.97,9.27199684 9.1999977,8.7360022 9.66,8.296 C10.1200023,7.8559978 10.7939956,7.60000036 11.682,7.528 L11.682,6.544 C11.682,6.33192266 11.8539227,6.16 12.066,6.16 C12.2780773,6.16 12.45,6.33192266 12.45,6.544 L12.45,7.516 C12.9060023,7.53200008 13.3479979,7.60399936 13.776,7.732 C13.9585887,7.78660598 14.1758467,7.87670054 14.4277738,8.00228368 L14.4277663,8.00229874 C14.6904381,8.13323798 14.8098222,8.44294665 14.703,8.71631558 C14.6052179,8.96654978 14.323095,9.09013666 14.0728608,8.99235461 C14.070477,8.99142308 14.0681005,8.99047276 14.0657316,8.98950373 C13.3804112,8.70919008 12.8418376,8.55801335 12.45,8.536 L12.45,11.332 C13.0340029,11.4760007 13.5139981,11.6259992 13.89,11.782 C14.2660019,11.9380008 14.5839987,12.1699985 14.844,12.478 C15.1040013,12.7860015 15.234,13.1959974 15.234,13.708 Z M10.146,9.856 C10.146,10.2000017 10.2779987,10.467999 10.542,10.66 C10.8060013,10.852001 11.1859975,11.0119994 11.682,11.14 L11.682,8.548 C11.1699974,8.61200032 10.7860013,8.76199882 10.53,8.998 C10.2739987,9.23400118 10.146,9.51999832 10.146,9.856 Z M12.45,15.052 C12.9860027,15.0039998 13.3879987,14.8660011 13.656,14.638 C13.9240013,14.4099989 14.058,14.1240017 14.058,13.78 C14.058,13.4279982 13.9200014,13.1580009 13.644,12.97 C13.3679986,12.7819991 12.9700026,12.6160007 12.45,12.472 L12.45,15.052 Z"/>
  </defs>
  <g fill="none" fill-rule="evenodd">
    <mask id="earn-b" fill="#fff">
      <use xlink:href="#earn-a"/>
    </mask>
    <use fill="#979797" fill-rule="nonzero" xlink:href="#earn-a"/>
    <g mask="url(#earn-b)">
      <rect width="24" height="24"/>
    </g>
  </g>
</svg>
