<svg xmlns="http://www.w3.org/2000/svg" xmlns:xlink="http://www.w3.org/1999/xlink" width="24" height="24" viewBox="0 0 24 24">
  <defs>
    <path id="house-a" d="M20.8402584,11.3002394 L18.1694148,8.73032836 L18.1694148,4.68046852 C18.1694148,4.45956227 17.9902721,4.28048236 17.7692884,4.28048236 L16.1287703,4.28048236 C16.0235465,4.28044778 15.9227705,4.32290534 15.8493137,4.39821921 C15.775857,4.47353309 15.735949,4.57531615 15.7386471,4.68046852 L15.7386471,6.39040934 L12.3675823,3.15052147 C12.1616763,2.94982618 11.8332545,2.94982618 11.6273485,3.15052147 L3.15467234,11.3002394 C3.05570463,11.3979362 3,11.5311856 3,11.6702266 C3,11.8092676 3.05570463,11.942517 3.15467234,12.0402138 C3.25411694,12.1397475 3.38906721,12.1956754 3.52979082,12.1956754 C3.67051443,12.1956754 3.8054647,12.1397475 3.9049093,12.0402138 L11.9974654,4.2504834 L20.1000246,12.0502135 C20.1991218,12.1465281 20.3319271,12.2003492 20.4701415,12.2002083 C20.6137274,12.2027362 20.7517293,12.1446505 20.8502616,12.0402138 C20.9479206,11.9411863 21.0018321,11.8071819 20.9999524,11.6681369 C20.9980728,11.5290919 20.9405586,11.3965927 20.8402584,11.3002394 Z M16.5288967,5.07045502 L17.3691621,5.07045502 L17.3691621,8.00035362 L16.5288967,7.180382 L16.5288967,5.07045502 Z M18.5895475,11.8502204 C18.7292286,11.8475346 18.8641189,11.9011304 18.9638429,11.9989385 C19.0635669,12.0967467 19.1197408,12.2305444 19.119715,12.3702024 L19.119715,20.4799217 C19.1197408,20.6195797 19.0635669,20.7533774 18.9638429,20.8511856 C18.8641189,20.9489937 18.7292286,21.0025894 18.5895475,20.9999037 L5.40538324,20.9999037 C5.26570214,21.0025894 5.13081189,20.9489937 5.03108786,20.8511856 C4.93136382,20.7533774 4.87518994,20.6195797 4.87521578,20.4799217 L4.87521578,12.3702024 C4.87521578,12.0775016 5.11257984,11.8402207 5.40538324,11.8402207 C5.69818664,11.8402207 5.93555069,12.0775016 5.93555069,12.3702024 L5.93555069,19.9999383 L12.727696,19.9999383 L12.727696,15.0001114 C12.7331244,14.7831198 12.910687,14.610057 13.1278224,14.6101249 L16.1287703,14.6101249 C16.3459057,14.610057 16.5234683,14.7831198 16.5288967,15.0001114 L16.5288967,19.9999383 L18.0593801,19.9999383 L18.0593801,12.3702024 C18.0593542,12.2305444 18.1155281,12.0967467 18.2152522,11.9989385 C18.3149762,11.9011304 18.4498664,11.8475346 18.5895475,11.8502204 Z M13.4879362,15.3101006 L13.4879362,19.9999383 L15.7386471,19.9999383 L15.7386471,15.3101006 L13.4879362,15.3101006 Z M10.9971494,13.8201522 L7.99620156,13.8201522 C7.77906612,13.82022 7.60150355,13.6471572 7.59607518,13.4301657 L7.59607518,10.5102668 C7.60150355,10.2932752 7.77906612,10.1202124 7.99620156,10.1202803 L10.9971494,10.1202803 C11.2126085,10.1202803 11.3872727,10.2948832 11.3872727,10.5102668 L11.3872727,13.4301657 C11.3872727,13.6455493 11.2126085,13.8201522 10.9971494,13.8201522 Z M8.29629635,10.9102529 L8.29629635,13.0001806 L10.5470072,13.0001806 L10.5470072,10.9102529 L8.29629635,10.9102529 Z"/>
  </defs>
  <g fill="none" fill-rule="evenodd">
    <mask id="house-b" fill="#fff">
      <use xlink:href="#house-a"/>
    </mask>
    <use fill="#000" fill-rule="nonzero" xlink:href="#house-a"/>
    <g mask="url(#house-b)">
      <rect width="24" height="24"/>
    </g>
  </g>
</svg>
