<svg xmlns="http://www.w3.org/2000/svg" xmlns:xlink="http://www.w3.org/1999/xlink" width="24" height="24" viewBox="0 0 24 24">
  <defs>
    <path id="location-a" d="M10.801479,21.3892736 C10.5914746,20.9823634 8.91219216,17.7745542 5.76363161,11.7658461 C5.30505222,10.8057296 5.04568615,9.76918222 5,8.7140192 C5,5.00596879 8.13398723,2 11.9999564,2 C15.8659256,2 18.9999128,5.00596879 18.9999128,8.7140192 C19.0046424,9.61251197 18.816927,10.5023624 18.4484011,11.3284176 C18.0771913,12.2032746 13.5953322,20.7266871 13.2090398,21.3689281 C12.8227473,22.0111691 12.4913896,22.0111691 11.9999564,21.999639 C11.5085232,21.9881089 11.1164856,21.999639 10.801479,21.3892736 Z M6.06059945,8.7140192 C6.09461416,9.61019535 6.31078019,10.4913733 6.69695913,11.3080721 C7.09998692,12.1015471 11.4074353,20.3845853 11.6108381,20.7622768 C11.8142409,21.1399684 12.1735398,21.1454921 12.3793209,20.7622768 C12.585102,20.3790616 17.1650757,11.643773 17.4408316,10.9825439 C18.2373072,9.22279902 18.0568628,7.1967276 16.9607476,5.5920499 C15.8646325,3.98737221 14.0000692,3.01961738 11.9999564,3.01727564 C8.71974014,3.01727564 6.06059945,5.56779461 6.06059945,8.7140192 Z M11.9999564,12.8339855 C10.2564054,12.8380995 8.68234777,11.8333344 8.01313684,10.289087 C7.34392591,8.74483953 7.71165731,6.9659288 8.94453775,5.78340959 C10.1774182,4.60089038 12.0320893,4.24818023 13.6421033,4.89005495 C15.2521173,5.53192966 16.2996734,7.04168956 16.2953842,8.7140192 C16.2953842,10.9894138 14.3722557,12.8339855 11.9999564,12.8339855 Z M11.9999564,5.60115576 C10.6863441,5.59703824 9.49968981,6.3528469 8.99401478,7.51571225 C8.48833976,8.6785776 8.76338131,10.0191408 9.69072894,10.911524 C10.6180766,11.8039072 12.014824,12.0721004 13.2288623,11.5908904 C14.4429006,11.1096805 15.2347777,9.97397923 15.2347847,8.7140192 C15.2347943,6.99879708 13.788217,5.60676106 11.9999564,5.60115576 Z"/>
  </defs>
  <g fill="currentColor" fill-rule="evenodd">
    <!-- Removed <mask> because Safari would render this SVG as a square. See here for more info: https://github.com/thebeetoken/beenest/pull/445 -->
    <g fill-rule="nonzero">
      <use xlink:href="#location-a"/>
      <use filter="url(#location-b)"/>
    </g>
  </g>
</svg>
