<svg xmlns="http://www.w3.org/2000/svg" xmlns:xlink="http://www.w3.org/1999/xlink" width="24" height="24" viewBox="0 0 24 24">
  <defs>
    <path id="lock-a" d="M18.4304492,8.19397117 L17.1627394,8.19397117 L17.1627394,4.66055046 C17.1627792,4.29979422 16.9092231,4.00572629 16.5931886,4.00000001 L7.40688558,4.00000001 C7.25422613,3.99997734 7.10794892,4.0699036 7.00086939,4.1940917 C6.89378986,4.31827981 6.83487254,4.48633293 6.83733479,4.66055046 L6.83733479,8.19397117 L5.56962497,8.19397117 C5.41696553,8.19394851 5.27068832,8.26387476 5.16360879,8.38806287 C5.05652926,8.51225097 4.99761194,8.68030409 5.00007419,8.85452163 L5.00007419,19.3394495 C5.00003437,19.7002058 5.2535905,19.9942737 5.56962497,20 L18.4304492,20 C18.7464837,19.9942737 19.0000398,19.7002058 19,19.3394495 L19,8.85452163 C19.0000398,8.49376538 18.7464837,8.19969746 18.4304492,8.19397117 Z M7.97643637,5.31061599 L16.0236378,5.31061599 L16.0236378,8.19397117 L7.97643637,8.19397117 L7.97643637,5.31061599 Z M17.8608984,18.689384 L6.13917576,18.689384 L6.13917576,9.50458716 L17.8608984,9.50458716 L17.8608984,18.689384 Z M12.0000371,11.8636959 C11.8473776,11.8636733 11.7011004,11.9335995 11.5940209,12.0577876 C11.4869414,12.1819757 11.4280241,12.3500289 11.4304863,12.5242464 L11.4304863,15.6697248 C11.4304863,16.0287461 11.6854829,16.3197903 12.0000371,16.3197903 C12.3145913,16.3197903 12.5695879,16.0287461 12.5695879,15.6697248 L12.5695879,12.5242464 C12.5720501,12.3500289 12.5131328,12.1819757 12.4060533,12.0577876 C12.2989738,11.9335995 12.1526965,11.8636733 12.0000371,11.8636959 Z"/>
  </defs>
  <g fill="currentColor" fill-rule="evenodd">
    <!-- Removed <mask> because Safari would render this SVG as a square. See here for more info: https://github.com/thebeetoken/beenest/pull/445 -->
    <g fill-rule="nonzero">
      <use xlink:href="#lock-a"/>
      <use filter="url(#lock-a)"/>
    </g>
  </g>
</svg>
