<svg xmlns="http://www.w3.org/2000/svg" xmlns:xlink="http://www.w3.org/1999/xlink" width="24" height="24" viewBox="0 0 24 24">
  <defs>
    <path id="mobile-a" d="M1.1886241,0.895046457 C0.872879381,0.895046457 0.616917713,1.17944831 0.616917713,1.53027577 L0.616917713,18.4697242 C0.616917713,18.8205517 0.872879381,19.1049535 1.1886241,19.1049535 L8.8113759,19.1049535 C9.12712062,19.1049535 9.38308229,18.8205517 9.38308229,18.4697242 L9.38308229,1.53027577 C9.38308229,1.17944831 9.12712062,0.895046457 8.8113759,0.895046457 L1.1886241,0.895046457 Z M1,-3.55271368e-15 L9,-3.55271368e-15 C9.55228475,-3.55271368e-15 10,0.497461389 10,1.11111111 L10,18.8888889 C10,19.5025386 9.55228475,20 9,20 L1,20 C0.44771525,20 7.46069873e-14,19.5025386 7.46069873e-14,18.8888889 L7.46069873e-14,1.11111111 C7.46069873e-14,0.497461389 0.44771525,-3.55271368e-15 1,-3.55271368e-15 Z M5,18.5 C5.55228475,18.5 6,18.0522847 6,17.5 C6,16.9477153 5.55228475,16.5 5,16.5 C4.44771525,16.5 4,16.9477153 4,17.5 C4,18.0522847 4.44771525,18.5 5,18.5 Z M3.09426575,1.58521123 L6.90378956,1.58521123 C6.9563881,1.58521123 6.99902765,1.53031881 6.99902765,1.46260557 C6.99902765,1.39489234 6.9563881,1.33999991 6.90378956,1.33999991 L3.09426575,1.33999991 C3.0416672,1.33999991 2.99902765,1.39489234 2.99902765,1.46260557 C2.99902765,1.53031881 3.0416672,1.58521123 3.09426575,1.58521123 Z M1.5,2 C1.22385763,2 1,2.2199303 1,2.49122807 L1,15.5087719 C1,15.7800697 1.22385763,16 1.5,16 L8.5,16 C8.77614237,16 9,15.7800697 9,15.5087719 L9,2.49122807 C9,2.2199303 8.77614237,2 8.5,2 L1.5,2 Z"/>
  </defs>
  <g fill="none" fill-rule="evenodd" transform="translate(7 2)">
    <mask id="mobile-b" fill="#fff">
      <use xlink:href="#mobile-a"/>
    </mask>
    <path stroke-width="1.5" d="M1.1886241,0.145046457 L8.8113759,0.145046457 C9.55998302,0.145046457 10.1330823,0.781823416 10.1330823,1.53027577 L10.1330823,18.4697242 C10.1330823,19.2181766 9.55998302,19.8549535 8.8113759,19.8549535 L1.1886241,19.8549535 C0.440016976,19.8549535 -0.133082287,19.2181766 -0.133082287,18.4697242 L-0.133082287,1.53027577 C-0.133082287,0.781823416 0.440016976,0.145046457 1.1886241,0.145046457 Z M1,0.75 C0.880577655,0.75 0.75,0.895086283 0.75,1.11111111 L0.75,18.8888889 C0.75,19.1049137 0.880577655,19.25 1,19.25 L9,19.25 C9.11942235,19.25 9.25,19.1049137 9.25,18.8888889 L9.25,1.11111111 C9.25,0.895086283 9.11942235,0.75 9,0.75 L1,0.75 Z M5,17.75 C5.13807119,17.75 5.25,17.6380712 5.25,17.5 C5.25,17.3619288 5.13807119,17.25 5,17.25 C4.86192881,17.25 4.75,17.3619288 4.75,17.5 C4.75,17.6380712 4.86192881,17.75 5,17.75 Z M3.09426575,0.835211233 C3.50323295,0.835211233 3.74902765,1.15163736 3.74902765,1.46260557 C3.74902765,1.77357378 3.50323295,2.08999991 3.09426575,2.08999991 L6.90378956,2.08999991 C6.49482236,2.08999991 6.24902765,1.77357378 6.24902765,1.46260557 C6.24902765,1.15163736 6.49482236,0.835211233 6.90378956,0.835211233 L3.09426575,0.835211233 Z M1.75,2.75 L1.75,15.25 L8.25,15.25 L8.25,2.75 L1.75,2.75 Z"/>
    <g mask="url(#mobile-b)">
      <rect width="24" height="24" transform="translate(-7 -2)"/>
    </g>
  </g>
</svg>
