<svg xmlns="http://www.w3.org/2000/svg" xmlns:xlink="http://www.w3.org/1999/xlink" width="24" height="24" viewBox="0 0 24 24">
  <defs>
    <path id="pencil-a" d="M1.81636106e-15,14.0292867 C1.81636106e-15,13.7902141 0.0942633262,13.5609334 0.262053123,13.3918836 L10.0575384,3.52283952 C10.4069426,3.17081152 10.9734387,3.17081152 11.3228428,3.52283952 L14.3692552,6.59212879 C14.7186594,6.94415679 14.7186594,7.51490694 14.3692552,7.86693494 L4.5737699,17.735979 C4.40598011,17.9050288 4.17840831,18 3.9411177,18 L0.894705326,18 C0.400573219,18 -3.17863185e-15,17.5964187 0,17.0985759 L1.81636106e-15,14.0292867 Z M1.27815047,16.7122513 L3.78228952,16.7122513 L13.1943297,7.22953186 L10.6901906,4.70658809 L1.27815047,14.1893075 L1.27815047,16.7122513 Z M15.4320376,6.93134185 L11.1203208,2.58724643 L13.235284,0.456400956 C13.8392829,-0.152133652 14.8164549,-0.152133652 15.4204538,0.456400956 L17.5470008,2.59891718 C18.1509997,3.20745179 18.1509997,4.19196177 17.5470008,4.80049638 L15.4320376,6.93134185 Z M15.4320376,5.1101902 L16.643212,3.88992055 C16.7480621,3.78428309 16.7480621,3.61513048 16.643212,3.50949301 L14.5166649,1.36697678 C14.4118148,1.26133931 14.243923,1.26133931 14.1390729,1.36697678 L12.9278985,2.58724643 L15.4320376,5.1101902 Z M1.70869708,13.4289035 L2.57015683,12.5991282 L5.41420377,15.7698952 L4.5250421,16.6228735 L1.70869708,13.4289035 Z"/>
  </defs>
  <g fill="none" fill-rule="evenodd" transform="translate(3 3)">
    <mask id="pencil-b" fill="#fff">
      <use xlink:href="#pencil-a"/>
    </mask>
    <use fill-rule="nonzero" xlink:href="#pencil-a"/>
    <g mask="url(#pencil-b)">
      <rect width="24" height="24" transform="translate(-3 -3)"/>
    </g>
  </g>
</svg>
