<svg xmlns="http://www.w3.org/2000/svg" xmlns:xlink="http://www.w3.org/1999/xlink" width="24" height="24" viewBox="0 0 24 24">
  <defs>
    <path id="profile-a" d="M14.6581165,12.7253598 C16.3691857,11.8647308 17.4593096,10.1235083 17.4861127,8.20828572 C17.4044028,5.25745594 14.9508856,2.92893098 12,3.00165826 C9.04911444,2.92893098 6.59559719,5.25745594 6.51388733,8.20828572 C6.54069043,10.1235083 7.63081433,11.8647308 9.34188348,12.7253598 C6.57419303,14.2409117 4.89652681,17.1866706 5.00495653,20.3404272 C5.00495653,20.7046992 5.30023936,21 5.6644892,21 C6.02873903,21 6.32402187,20.7046992 6.32402187,20.3404272 C6.32402187,16.5129065 8.87221628,13.4049196 12,13.4049196 C15.1277837,13.4049196 17.6759781,16.5129065 17.6759781,20.3404272 C17.6759781,20.7046992 17.971261,21 18.3355108,21 C18.6997606,21 18.9950435,20.7046992 18.9950435,20.3404272 C19.1034732,17.1866706 17.425807,14.2409117 14.6581165,12.7253598 Z M7.83295267,8.20828572 C7.85615334,7.13369537 8.31109894,6.11372455 9.09512899,5.37853418 C9.87915904,4.64334381 10.9262063,4.25488555 12,4.30081674 C13.0737937,4.25488555 14.120841,4.64334381 14.904871,5.37853418 C15.6889011,6.11372455 16.1438467,7.13369537 16.1670473,8.20828572 C16.1412031,9.28112285 15.685104,10.2985125 14.9013713,11.0315445 C14.1176386,11.7645765 13.0721003,12.1516813 12,12.1057612 C10.9278997,12.1516813 9.88236136,11.7645765 9.09862866,11.0315445 C8.31489596,10.2985125 7.8587969,9.28112285 7.83295267,8.20828572 Z"/>
  </defs>
  <g fill="currentColor" fill-rule="evenodd">
    <g fill-rule="nonzero">
      <use xlink:href="#profile-a"/>
      <use filter="url(#profile-b"/>
    </g>
    <!-- Removed <mask> because Safari would render this SVG as a square. See here for more info: https://github.com/thebeetoken/beenest/pull/445 -->
  </g>
</svg>
