<svg xmlns="http://www.w3.org/2000/svg" xmlns:xlink="http://www.w3.org/1999/xlink" width="24" height="24" viewBox="0 0 24 24">
  <defs>
    <path id="receipt-a" d="M15.0014313,8.89003495 L15.0014313,1.48003495 C14.9904556,0.655518452 14.3160021,-0.00553536711 13.4914313,3.49459459e-05 L4.75143134,3.49459459e-05 C3.94017182,0.00540691059 3.28230318,0.65883049 3.27143134,1.47003495 L3.27143134,9.33003495 C3.27143134,9.59513163 3.05652802,9.81003495 2.79143134,9.81003495 L1.70143134,9.81003495 C1.35164519,9.81355301 1.02611579,9.98941373 0.83143134,10.2800349 C-0.327260811,11.8563604 -0.269625015,14.0177028 0.97143134,15.5300349 C1.21346989,15.836242 1.5811338,16.0163973 1.97143134,16.0200349 L10.7414313,16.0200349 C14.9914313,16.0000349 15.0114313,10.0800349 15.0014313,8.89003495 Z M9.64143134,15.0000349 L2.08143134,15.0000349 C1.92044815,14.9954012 1.77155259,14.9135086 1.68143134,14.7800349 C0.802299018,13.6891522 0.749321814,12.1487381 1.55143134,11.0000349 C1.64234368,10.862352 1.79644194,10.7796652 1.96143134,10.7800349 L9.57143134,10.7800349 C9.72357129,10.7785503 9.86701826,10.850804 9.95638881,10.9739368 C10.0457594,11.0970695 10.0699962,11.2558468 10.0214313,11.4000349 C9.62022134,12.3215942 9.62022134,13.3684757 10.0214313,14.2900349 C10.0999177,14.4324325 10.1009808,14.6048825 10.0242559,14.7482368 C9.94753106,14.8915911 9.80345022,14.9863585 9.64143134,15.0000349 Z M11.6414313,14.8600349 C11.6414313,14.8600349 11.5314313,14.7000349 11.5214313,14.6800349 C10.6583141,13.5905906 10.5626347,12.0796532 11.2814313,10.8900349 C11.3823998,10.6448062 11.3601027,10.3660925 11.2214313,10.1400349 C11.0739776,9.92014603 10.8261804,9.78873844 10.5614313,9.79003495 L4.27143134,9.79003495 L4.27143134,1.46003495 C4.27405547,1.33537395 4.32610801,1.21686459 4.41613172,1.13059187 C4.50615543,1.04431915 4.62677154,0.997354381 4.75143134,1.00003495 L13.4914313,1.00003495 C13.7510052,1.00003495 13.9614313,1.21046111 13.9614313,1.47003495 L13.9614313,8.91003495 C14.0114313,9.80003495 14.0514313,13.8000349 11.6614313,14.8800349 L11.6414313,14.8600349 Z M5.57143134,2.69003495 L5.57143134,3.69003495 L13.0214313,3.69003495 L13.0214313,2.69003495 L5.57143134,2.69003495 Z M5.57143134,5.18003495 L5.57143134,6.18003495 L13.0214313,6.18003495 L13.0214313,5.18003495 L5.57143134,5.18003495 Z M5.57143134,7.67003495 L5.57143134,8.67003495 L13.0214313,8.67003495 L13.0214313,7.67003495 L5.57143134,7.67003495 Z"/>
  </defs>
  <g fill="none" fill-rule="evenodd" transform="translate(4 4)">
    <mask id="receipt-b" fill="#fff">
      <use xlink:href="#receipt-a"/>
    </mask>
    <use fill="currentColor" fill-rule="nonzero" xlink:href="#receipt-a"/>
  </g>
</svg>
