<svg xmlns="http://www.w3.org/2000/svg" width="134" height="208" viewBox="0 0 134 208">
  <g fill="none" fill-rule="evenodd">
    <path fill="#FFF" stroke="#00969E" stroke-width="4" d="M41.918417,113.59786 L13.2062942,198.294996 L33.4680144,181.15256 L44.4699328,201.691682 L64.080108,121.910636 L41.918417,113.59786 Z"/>
    <path fill="#FFF" stroke="#00969E" stroke-width="4" d="M99.8496332,113.588401 L71.0447264,198.559238 L91.0440138,182.337737 L102.326313,201.894093 L121.687135,121.659079 L99.8496332,113.588401 Z" transform="matrix(-1 0 0 1 190.976 0)"/>
    <path stroke="#00969E" stroke-width="4" d="M82.3442025,125.386412 L92.2588994,110.961447 L109.721449,109.597173 L111.087259,92.1537898 L125.526675,82.2511981 L117.978526,66.463509 L125.526675,50.6758199 L111.087259,40.7732281 L109.721449,23.3298448 L92.2588994,21.9655706 L82.3442025,7.54060569 L66.5374245,15.0811003 L50.7306465,7.54060569 L40.8159496,21.9655706 L23.3533996,23.3298448 L21.9875899,40.7732281 L7.54817362,50.6758199 L15.096323,66.463509 L7.54817362,82.2511981 L21.9875899,92.1537898 L23.3533996,109.597173 L40.8159496,110.961447 L50.7306465,125.386412 L66.5374245,117.845918 L82.3442025,125.386412 Z"/>
    <circle cx="67" cy="67" r="41" fill="#FFF" stroke="#00969E" stroke-width="4"/>
    <circle cx="67" cy="67" r="30" stroke="#00969E" stroke-width="4"/>
  </g>
</svg>
