<svg xmlns="http://www.w3.org/2000/svg" xmlns:xlink="http://www.w3.org/1999/xlink" width="24" height="24" viewBox="0 0 24 24">
  <defs>
    <path id="sign-out-a" d="M11.9862152,20 C8.68100101,19.9691008 5.72990483,17.9794939 4.54047185,14.9801358 C3.35103887,11.9807778 4.16418367,8.57917565 6.59207136,6.39774648 C6.73291895,6.21108688 6.97617801,6.12627882 7.20687841,6.18340465 C7.43757881,6.24053048 7.60952112,6.42815033 7.64144121,6.65759052 C7.67336131,6.88703071 7.55886698,7.11234415 7.35207101,7.22704225 C5.02770461,9.28383692 4.43791149,12.6138501 5.92073403,15.308471 C7.40355657,18.0030918 10.5796191,19.3729097 13.6285482,18.6328078 C16.6774772,17.8927059 18.8192136,15.232037 18.8262121,12.1757746 C18.8342997,10.2988764 18.0343993,8.50433551 16.6203594,7.22704225 C16.4404615,7.09755385 16.3524938,6.87945038 16.3938875,6.66553721 C16.4352813,6.45162405 16.5987524,6.27954343 16.8147421,6.22251749 C17.0307319,6.16549156 17.2612327,6.23355515 17.4081639,6.39774648 C19.8396138,8.58255075 20.6510599,11.9907131 19.4544981,14.9925742 C18.2579363,17.9944352 15.29649,19.980062 11.9862152,20 Z M11.9862152,9.63380282 C11.8321933,9.6338223 11.6846106,9.57370542 11.5765754,9.46693863 C11.4685402,9.36017184 11.4090971,9.2156935 11.4115813,9.06591549 L11.4115813,4.55887324 C11.4115813,4.25021607 11.6688537,4 11.9862152,4 C12.3035767,4 12.5608491,4.25021607 12.5608491,4.55887324 L12.5608491,9.06591549 C12.5633333,9.2156935 12.5038902,9.36017184 12.395855,9.46693863 C12.2878198,9.57370542 12.1402371,9.6338223 11.9862152,9.63380282 Z"/>
  </defs>
  <g fill="none" fill-rule="evenodd">
    <mask id="sign-out-b" fill="#fff">
      <use xlink:href="#sign-out-a"/>
    </mask>
    <use fill-rule="nonzero" xlink:href="#sign-out-a"/>
    <g mask="url(#sign-out-b)">
      <rect width="24" height="24"/>
    </g>
  </g>
</svg>
