<svg xmlns="http://www.w3.org/2000/svg" xmlns:xlink="http://www.w3.org/1999/xlink" width="24" height="24" viewBox="0 0 24 24">
  <defs>
    <path id="trash-a" d="M8.77465163,5.38235294 C9.16952946,3.96058989 10.5840057,3 11.9521453,3 C13.3340602,3 14.83323,3.87887445 15.2310667,5.38235294 L17.3331867,5.38235294 C17.7013664,5.38235294 17.999835,5.61937866 17.999835,5.91176471 C17.999835,6.20415075 17.7013664,6.44117647 17.3331867,6.44117647 L6.66681331,6.44117647 C6.2986336,6.44117647 6.00016497,6.20415075 6.00016497,5.91176471 C6.00016497,5.61937866 6.2986336,5.38235294 6.66681331,5.38235294 L8.77465163,5.38235294 Z M9.90171691,5.38235294 L14.1360265,5.38235294 C13.8050022,4.58832233 13.0304811,3.94798225 11.9521453,3.94798225 C10.8851601,3.94798225 10.1817248,4.5948369 9.90171691,5.38235294 Z M6.66681331,6.70588235 L17.3331867,6.70588235 C17.745135,6.70588235 18.0584884,7.14651225 17.9907646,7.63055214 L16.2130357,20.3364345 C16.1594607,20.7193485 15.8813416,21 15.5554578,21 L8.44454221,21 C8.1186584,21 7.84053931,20.7193485 7.78696434,20.3364345 L6.00923544,7.63055214 C5.94151156,7.14651225 6.25486501,6.70588235 6.66681331,6.70588235 Z M8.72444741,19.9411765 L15.2755526,19.9411765 L16.9792094,7.76470588 L7.02079055,7.76470588 L8.72444741,19.9411765 Z M8.83728136,10.7503442 C8.80303105,10.42395 8.99738856,10.1262808 9.27139099,10.0854816 C9.54539343,10.0446823 9.79528165,10.2762027 9.82953195,10.602597 L10.4961803,16.9555381 C10.5304306,17.2819324 10.3360731,17.5796015 10.0620707,17.6204008 C9.78806822,17.6612001 9.53818,17.4296796 9.50392969,17.1032854 L8.83728136,10.7503442 Z M13.5038197,16.9555381 L14.170468,10.602597 C14.2047184,10.2762027 14.4546066,10.0446823 14.728609,10.0854816 C15.0026114,10.1262808 15.1969689,10.42395 15.1627186,10.7503442 L14.4960703,17.1032854 C14.46182,17.4296796 14.2119318,17.6612001 13.9379293,17.6204008 C13.6639269,17.5796015 13.4695694,17.2819324 13.5038197,16.9555381 Z M11.5000137,10.6764706 C11.5000137,10.3475363 11.7238652,10.0808824 12,10.0808824 C12.2761348,10.0808824 12.4999863,10.3475363 12.4999863,10.6764706 L12.4999863,17.0294118 C12.4999863,17.3583461 12.2761348,17.625 12,17.625 C11.7238652,17.625 11.5000137,17.3583461 11.5000137,17.0294118 L11.5000137,10.6764706 Z"/>
  </defs>
  <g fill="currentColor" fill-rule="evenodd">
    <g fill-rule="nonzero">
      <use xlink:href="#trash-a"/>
      <use filter="url(#trash-b"/>
    </g>
  </g>
</svg>
