<?xml version="1.0" encoding="UTF-8"?>
<svg width="24px" height="24px" viewBox="0 0 24 24" version="1.1" xmlns="http://www.w3.org/2000/svg" xmlns:xlink="http://www.w3.org/1999/xlink">
    <!-- Generator: Sketch 52.2 (67145) - http://www.bohemiancoding.com/sketch -->
    <title>-Icon/Decorative/travel</title>
    <desc>Created with Sketch.</desc>
    <defs>
        <path d="M8,7 C7.44771525,7 7,7.44771525 7,8 L7,19 C7,19.5522847 7.44771525,20 8,20 L16,20 C16.5522847,20 17,19.5522847 17,19 L17,8 C17,7.44771525 16.5522847,7 16,7 L8,7 Z M10,6 L10,3.44776121 C10,3.20046952 10.1413838,3 10.3157895,3 L13.6842105,3 C13.8586162,3 14,3.20046952 14,3.44776121 L14,6 L16,6 C17.1045695,6 18,6.8954305 18,8 L18,19 C18,20.1045695 17.1045695,21 16,21 C16,21.5522847 15.5522847,22 15,22 C14.4477153,22 14,21.5522847 14,21 L10,21 C10,21.5522847 9.55228475,22 9,22 C8.44771525,22 8,21.5522847 8,21 C6.8954305,21 6,20.1045695 6,19 L6,8 C6,6.8954305 6.8954305,6 8,6 L10,6 Z M10.6315789,6 L13.3684211,6 L13.3684211,3.57933528 L10.6315789,3.57933528 L10.6315789,6 Z M10,9 L10,11 L14,11 L14,9 L10,9 Z" id="path-1"></path>
    </defs>
    <g id="-Icon/Decorative/travel" stroke="none" stroke-width="1" fill="none" fill-rule="evenodd">
        <mask id="mask-2" fill="white">
            <use xlink:href="#path-1"></use>
        </mask>
        <use id="Combined-Shape" fill="#979797" fill-rule="nonzero" xlink:href="#path-1"></use>
        <g id="/Color/Utility/Black" mask="url(#mask-2)">
            <rect id="Rectangle" x="0" y="0" width="24" height="24"></rect>
        </g>
    </g>
</svg>