<svg xmlns="http://www.w3.org/2000/svg" xmlns:xlink="http://www.w3.org/1999/xlink" width="24" height="24" viewBox="0 0 24 24">
  <defs>
    <path id="wallet-a" d="M18.8905787,4.25076465 L18.2574193,4.25076465 L16.600652,1.13721728 C16.4738686,0.960071891 16.2765207,0.836828448 16.0519138,0.794531245 C15.8466446,0.751479499 15.6313991,0.783012718 15.4504123,0.88265051 L14.9333321,1.10784419 L14.5428838,0.393099037 C14.3046273,0.0207820784 13.7910847,-0.109166496 13.3820914,0.0993681531 L4.04298934,4.25076465 L1.0565872,4.25076465 C0.767326978,4.25042895 0.49059925,4.36027685 0.291109283,4.55462341 C0.0916193162,4.74896998 -0.0131418156,5.01077509 0.00132143333,5.27882274 L0.00132143333,14.9621509 C0.000369334839,15.5131596 0.463667711,15.9688115 1.0565872,16 L18.8905787,16 C19.5042293,15.9946284 19.9986351,15.5315372 19.9986078,14.9621509 L19.9986078,5.27882274 C20.0139362,5.00204938 19.9021285,4.73221371 19.690918,4.53624718 C19.4797076,4.34028065 19.1888818,4.23654256 18.8905787,4.25076465 Z M15.7880974,1.76384316 L17.0860743,4.25076465 L10.1213202,4.25076465 L15.7880974,1.76384316 Z M13.6775658,1.02951595 L13.920277,1.47990331 L7.58868233,4.25076465 L6.49120592,4.25076465 L13.6775658,1.02951595 Z M1.04603455,7.9909379 L7.65199827,7.9909379 L7.65199827,9.38126408 L1.03548189,9.38126408 L1.04603455,7.9909379 Z M18.9855527,14.9719419 C18.985989,15.0009183 18.9635864,15.025861 18.9327894,15.0306881 L1.00382392,14.9621509 L1.00382392,10.350576 L8.01078863,10.350576 C8.39714219,10.3452251 8.70730708,10.0530858 8.70726404,9.69457703 L8.70726404,7.6580429 C8.70159968,7.30335183 8.39307054,7.0170905 8.01078863,7.01183495 L1.04603455,7.01183495 L1.04603455,5.22986759 L18.9855527,5.27882274 L18.9855527,14.9719419 Z"/>
  </defs>
  <g fill="none" fill-rule="evenodd" transform="translate(2 4)">
    <mask id="wallet-b" fill="#fff">
      <use xlink:href="#wallet-a"/>
    </mask>
    <use fill-rule="nonzero" xlink:href="#wallet-a"/>
    <g mask="url(#wallet-b)">
      <rect width="24" height="24" transform="translate(-2 -4)"/>
    </g>
  </g>
</svg>
