<svg xmlns="http://www.w3.org/2000/svg" xmlns:xlink="http://www.w3.org/1999/xlink" width="24" height="24" viewBox="0 0 24 24">
  <path d="M12,21 C7.02943725,21 3,16.9705627 3,12 C3,7.02943725 7.02943725,3 12,3 C16.9705627,3 21,7.02943725 21,12 C21,16.9705627 16.9705627,21 12,21 Z M8.4,11.8516919 L8.4,15.6 L9.525,14.9623082 L9.525,12.4896149 L12.9,10.575846 L12.9,13.0484622 L17.4,15.6 L17.4,11.8516919 L12.9,9.3 L8.4,11.8516919 Z M6.6,10.7170651 L6.6,14.1208563 L7.68039372,14.7 L7.68145375,11.2962089 L12,8.97949385 L10.9256636,8.4 L6.6,10.7170651 Z"/>
</svg>
