<?xml version="1.0" encoding="UTF-8"?>
<svg width="154px" height="19px" viewBox="0 0 154 19" version="1.1" xmlns="http://www.w3.org/2000/svg" xmlns:xlink="http://www.w3.org/1999/xlink">
    <!-- Generator: Sketch 49.2 (51160) - http://www.bohemiancoding.com/sketch -->
    <title>logo-huffpost</title>
    <desc>Created with Sketch.</desc>
    <defs></defs>
    <g id="Page-1" stroke="none" stroke-width="1" fill="none" fill-rule="evenodd" opacity="0.600000024">
        <g id="beenest-home" transform="translate(-357.000000, -3953.000000)" fill="#000000" fill-rule="nonzero">
            <g id="module-media" transform="translate(0.000000, 3882.000000)">
                <g id="logo-group" transform="translate(180.000000, 65.000000)">
                    <g id="logo-huffpost" transform="translate(177.275000, 6.000000)">
                        <polygon id="Shape" points="19.7563107 18.4255814 25.3373093 18.4255814 28.3294036 0.596511628 22.748405 0.596511628 21.6449376 6.98139535 16.8066574 6.98139535 17.9101248 0.596511628 12.3291262 0.596511628 9.3370319 18.4255814 14.9180305 18.4255814 16.0427184 11.7534884 20.8809986 11.7534884"></polygon>
                        <path d="M31.4912621,0.574418605 L29.79362,10.494186 C29.6450763,11.2674419 29.5814147,12.0186047 29.5814147,12.7255814 C29.5814147,17.9837209 33.9952843,18.7790698 36.6478502,18.7790698 C42.2076283,18.7790698 44.6055479,16.8569767 45.4755895,11.6651163 L47.3429958,0.552325581 L41.7619972,0.552325581 L40.1704577,9.8755814 C39.661165,12.7918605 39.3004161,14.3162791 37.2208044,14.3162791 C35.8626907,14.3162791 35.2048544,13.5651163 35.2048544,12.0186047 C35.2048544,11.422093 35.2897365,10.6930233 35.4595007,9.7872093 L37.0722607,0.552325581 L31.4912621,0.552325581 L31.4912621,0.574418605 Z" id="Shape"></path>
                        <path d="M76.8395284,18.4255814 L82.420527,18.4255814 L83.2056865,13.8302326 L85.8370319,13.8302326 C90.6965326,13.8302326 93.3915395,11.0906977 93.3915395,6.09767442 C93.3915395,2.58488372 91.0572816,0.574418605 86.9617198,0.574418605 L79.8316227,0.574418605 L76.8395284,18.4255814 Z M85.5399445,9.43372093 L83.9271845,9.43372093 L84.6699029,5.23604651 L86.1765603,5.23604651 C87.4073509,5.23604651 88.0651872,5.87674419 88.0651872,7.04767442 C88.0651872,8.52790698 87.1102635,9.43372093 85.5399445,9.43372093 Z" id="Shape"></path>
                        <path d="M104.235229,0.198837209 C98.1661581,0.198837209 94.537448,4.28604651 94.537448,11.1569767 C94.537448,15.9290698 97.4234397,18.8011628 102.26172,18.8011628 C108.330791,18.8011628 111.959501,14.7139535 111.959501,7.84302326 C111.980721,3.04883721 109.09473,0.198837209 104.235229,0.198837209 Z M102.601248,14.1837209 C101.158252,14.1837209 100.309431,13.1011628 100.309431,11.2895349 C100.309431,10.6046512 100.373093,10.0081395 100.500416,9.32325581 C100.924827,6.98139535 101.646325,4.83837209 103.916921,4.83837209 C105.359917,4.83837209 106.208738,5.92093023 106.208738,7.73255814 C106.208738,8.41744186 106.145076,9.01395349 106.017753,9.69883721 C105.593343,12.0186047 104.871845,14.1837209 102.601248,14.1837209 Z" id="Shape"></path>
                        <polygon id="Shape" points="131.376283 18.4255814 136.957282 18.4255814 139.164216 5.36860465 143.365881 5.36860465 144.172261 0.596511628 129.890846 0.596511628 129.084466 5.36860465 133.540777 5.36860465"></polygon>
                        <path d="M122.124133,7.18023256 C120.362829,6.60581395 119.641331,6.3627907 119.641331,5.50116279 C119.641331,4.92674419 120.00208,4.24186047 121.063107,4.24186047 C121.848266,4.24186047 122.506103,4.70581395 122.760749,5.39069767 L127.683911,3.99883721 C127.110957,1.48023256 125.031345,0.198837209 121.445076,0.198837209 C114.696949,0.198837209 114.166436,4.90465116 114.166436,6.34069767 C114.166436,9.25697674 115.651872,11.0465116 118.877393,11.9744186 C119.726214,12.2174419 120.702358,12.4825581 120.702358,13.4546512 C120.702358,14.227907 120.150624,14.7139535 119.1957,14.7139535 C118.325659,14.7139535 117.391956,14.1837209 117.073648,13.255814 L112.214147,14.6255814 C112.74466,17.2767442 115.14258,18.7790698 118.898613,18.7790698 C121.763384,18.7790698 126.559223,17.9837209 126.559223,12.5930233 C126.580444,9.89767442 125.116227,8.13023256 122.124133,7.18023256 Z" id="Shape"></path>
                        <polygon id="Shape" points="6.21761442 18.4255814 9.23092926 0.596511628 0 0.596511628 0 18.4255814"></polygon>
                        <polygon id="Shape" points="146.57018 0.596511628 143.578086 18.4255814 152.809015 18.4255814 152.809015 0.596511628"></polygon>
                        <polygon id="Shape" points="50.5260749 0.574418605 47.5339806 18.4255814 53.1149792 18.4255814 54.0062413 13.1674419 58.6959778 13.1674419 59.4599168 8.68255814 54.7701803 8.68255814 55.3006935 5.36860465 61.8578363 5.36860465 62.6642164 0.574418605"></polygon>
                        <polygon id="Shape" points="65.1682386 0.574418605 62.1761442 18.4255814 67.7571429 18.4255814 68.6271845 13.1674419 73.3381415 13.1674419 74.1020804 8.68255814 69.412344 8.68255814 69.9428571 5.36860465 76.5 5.36860465 77.30638 0.574418605"></polygon>
                    </g>
                </g>
            </g>
        </g>
    </g>
</svg>