<?xml version="1.0" encoding="UTF-8"?>
<svg width="72px" height="25px" viewBox="0 0 72 25" version="1.1" xmlns="http://www.w3.org/2000/svg" xmlns:xlink="http://www.w3.org/1999/xlink">
    <!-- Generator: Sketch 49.2 (51160) - http://www.bohemiancoding.com/sketch -->
    <title>logo-inc</title>
    <desc>Created with Sketch.</desc>
    <defs></defs>
    <g id="Page-1" stroke="none" stroke-width="1" fill="none" fill-rule="evenodd" opacity="0.600000024">
        <g id="beenest-home" transform="translate(-837.000000, -3950.000000)" fill="#1D1D1B">
            <g id="module-media" transform="translate(0.000000, 3882.000000)">
                <g id="logo-group" transform="translate(180.000000, 65.000000)">
                    <g id="logo-inc" transform="translate(657.825000, 3.000000)">
                        <polygon id="Fill-1" points="0 0 0 5.74205882 3.13583333 5.74205882 3.13583333 19.1514706 0 19.1514706 0 24.4870588 16.7213659 24.4870588 16.7213659 19.1470588 13.5858211 19.1470588 13.5858211 5.74205882 16.7213659 5.74205882 16.7213659 0"></polygon>
                        <path d="M31.8146959,24.4869559 L31.8146959,19.1491618 L34.2395191,19.1491618 L34.2395191,13.5610735 C34.2395191,11.87725 33.0618138,11.1226912 31.5459927,11.1226912 C29.623076,11.1226912 28.1752244,12.5651912 28.1752244,14.5215147 L28.1752244,19.1491618 L30.670326,19.1491618 L30.670326,24.4869559 L17.5875659,24.4869559 L17.5875659,19.1491618 L19.9497589,19.1491618 L19.9497589,11.0971029 L17.5875659,11.0971029 L17.5875659,5.75327941 L27.9040679,5.75327941 L27.9040679,9.43901471 C28.073198,9.30092647 28.242328,9.09548529 28.3759581,8.92269118 C30.2640963,6.72327941 32.4223809,5.93475 35.253578,5.93475 C39.229578,5.93475 42.4675821,7.58342647 42.4675821,12.0850441 L42.4675821,19.1471029 L44.590511,19.1471029 L44.590511,24.4869559 L31.8146959,24.4869559 Z" id="Fill-2"></path>
                        <path d="M65.3928039,13.6558676 L58.3337876,14.44675 C58.2464807,12.4502794 57.8450132,10.33925 55.45569,10.33925 C52.4215945,10.33925 52.1868039,12.9157206 52.1868039,15.3902794 L52.1868039,15.3923382 L52.1868039,15.4418971 C52.1868039,17.9151324 52.4215945,20.4916029 55.45569,20.4916029 C57.0495823,20.4916029 58.4542856,19.5623382 58.4542856,17.5941029 L58.6851799,17.5960147 L65.4847287,17.6004265 L65.427438,18.2185147 C64.2660396,24.0435147 59.1082937,24.9551324 55.3884421,24.9551324 C49.5580722,24.9551324 43.8251108,22.0355735 43.8251108,15.4048382 L43.8251108,15.4236618 C43.8251108,8.79336765 49.5580722,5.87336765 55.3884421,5.87336765 C55.3884421,5.87336765 64.5324339,5.26895588 65.3928039,13.6558676" id="Fill-4"></path>
                        <path d="M70.8609006,21.5418235 C70.8609006,23.218 69.5280632,24.5762353 67.8830856,24.5762353 C66.2391181,24.5762353 64.9062807,23.218 64.9062807,21.5418235 C64.9062807,19.8663824 66.2391181,18.5056471 67.8830856,18.5056471 C69.5280632,18.5056471 70.8609006,19.8663824 70.8609006,21.5418235" id="Fill-6"></path>
                    </g>
                </g>
            </g>
        </g>
    </g>
</svg>