<?xml version="1.0" encoding="UTF-8"?>
<svg width="90px" height="24px" viewBox="0 0 90 24" version="1.1" xmlns="http://www.w3.org/2000/svg" xmlns:xlink="http://www.w3.org/1999/xlink">
    <!-- Generator: Sketch 49.2 (51160) - http://www.bohemiancoding.com/sketch -->
    <title>logo-forbes</title>
    <desc>Created with Sketch.</desc>
    <defs></defs>
    <g id="Page-1" stroke="none" stroke-width="1" fill="none" fill-rule="evenodd" opacity="0.600000024">
        <g id="beenest-home" transform="translate(-180.000000, -3950.000000)" fill="#000000" fill-rule="nonzero">
            <g id="module-media" transform="translate(0.000000, 3882.000000)">
                <g id="logo-group" transform="translate(180.000000, 65.000000)">
                    <g id="logo-forbes" transform="translate(0.000000, 3.000000)">
                        <path d="M25.4446173,23.4464727 C25.038115,23.5435289 24.6032192,23.582956 23.7422925,23.6004353 C23.1063938,23.6134462 22.5137278,23.6103578 22.4253997,23.5935356 C21.3932127,23.3973203 21.1091492,23.3298344 20.7230748,23.189277 C19.6312101,22.7920495 18.8697891,22.2913918 18.087619,21.4567871 C16.6689079,19.9429859 15.9372937,17.7822526 15.9372937,15.1056165 C15.9372937,12.5255109 16.7470221,10.3271248 18.2778297,8.75129172 C19.7068832,7.28007169 21.5643445,6.54856866 23.8707698,6.54856866 C26.0465979,6.54856866 27.7298439,7.16586469 29.0655586,8.45361756 C30.7110322,10.0400303 31.5620019,12.5004748 31.4634598,15.386797 C31.3635044,18.3146491 30.2810185,20.6289507 28.3053581,22.1382835 C27.4931886,22.7587994 26.5844683,23.174229 25.4446173,23.4464727 Z M24.4037581,22.4159156 C24.8588248,22.2776581 25.4200139,21.7392818 25.7193019,21.1539217 C26.3370852,19.9455486 26.6129903,18.1585837 26.6198638,15.3210853 C26.6284076,11.765029 26.0834067,9.50217972 24.933149,8.31739714 C24.4501384,7.81982788 24.1076178,7.66533959 23.4900272,7.66632527 C22.1193666,7.66855947 21.2494465,9.13228836 20.9057696,12.0144051 C20.7478067,13.3392851 20.7469716,16.4954854 20.9042921,17.6537861 C21.3910928,21.2386241 22.6481794,22.9491663 24.4037581,22.4159156 Z M53.2921464,23.5342636 C51.7283844,23.7741771 49.2280225,23.5845988 46.7196308,23.0359058 L46.0572016,22.8910114 L46.1067296,21.6359173 C46.1903684,19.5192766 46.1709683,5.17953037 46.0833467,4.34722554 C45.9734344,3.3026718 45.8058357,2.80221122 45.4349858,2.41024073 C45.1322289,2.09029029 44.9872423,2.02497282 44.1728244,1.84170279 C43.9360406,1.78841058 43.9176041,1.76764567 43.9035358,1.53837743 C43.8909451,1.33256827 43.9115657,1.28670148 44.0293152,1.25844544 C44.106787,1.23991473 45.4998669,0.972927947 47.1251695,0.665199893 C48.750408,0.357471838 50.1960993,0.0818768217 50.3378741,0.0528322349 L50.5955996,0 L50.5714459,3.83283407 C50.5503756,7.17907275 50.559369,7.66566815 50.6421084,7.66566815 C50.694206,7.66566815 50.9879052,7.54534996 51.2946449,7.3982871 C52.5255863,6.80819572 54.1445936,6.59850957 55.4029007,6.86621918 C57.0804295,7.22309961 58.5577905,8.43502114 59.4216079,10.1627141 C60.059241,11.4380474 60.3104784,12.4660418 60.3691926,14.0397064 C60.4832162,17.0963535 59.6392485,19.5764458 57.8870745,21.333709 C56.6748907,22.5493761 55.2435246,23.2349466 53.2921464,23.5342636 Z M52.2372189,22.3841768 C52.7039129,22.2935603 53.0664117,22.1035877 53.4556981,21.7455245 C54.4312908,20.8484279 55.164768,18.996014 55.4532639,16.700966 C55.5707564,15.7662166 55.5549537,13.6362364 55.4247419,12.856041 C55.0725212,10.7459714 54.3155327,9.35912527 53.2113342,8.80070695 C52.7533124,8.56907308 52.6827141,8.55277657 52.1393192,8.55277657 C51.7507395,8.55277657 51.4165056,8.59529206 51.1322495,8.68098017 L50.7067968,8.80918376 L50.6754483,11.210882 C50.6351706,14.287374 50.7330061,21.9895121 50.8151674,22.2105007 C50.8675219,22.3515181 50.9252725,22.3814826 51.1853749,22.402379 C51.7975052,22.451597 51.8987454,22.4497571 52.2372189,22.3841768 Z M70.9881022,23.5320951 C70.1917996,23.6643071 69.0024848,23.6530047 68.1954544,23.5057447 C65.0108222,22.9243273 62.7942025,20.6545782 62.0451153,17.2079977 C61.9272374,16.6654159 61.906424,16.3628134 61.906424,15.1897275 C61.906424,14.0079677 61.9267877,13.715419 62.0484557,13.1526637 C62.4520031,11.2853991 63.1132117,9.95690492 64.2277527,8.77429083 C65.6255863,7.29097984 67.4325559,6.54863437 69.6450643,6.54863437 C70.5789019,6.54863437 71.2873902,6.66632408 72.0363489,6.94592752 C73.9180281,7.64838596 75.2376832,9.39467532 75.7375243,11.8437517 C75.8618261,12.4527023 76.0005174,13.6144858 76.0005174,14.0466719 L76.0005174,14.2368416 L71.2950346,14.237893 C68.6915697,14.238353 66.5495311,14.2647691 66.5000673,14.2967707 C66.4274134,14.3438203 66.4193193,14.5013314 66.4568347,15.1336097 C66.5461264,16.6393941 66.8457356,17.8110343 67.397867,18.8141897 C67.8025064,19.5491754 68.6119779,20.3663666 69.2875118,20.7217356 C70.3058233,21.257352 71.4077735,21.4615183 72.6024843,21.3361403 C73.6252925,21.2288331 74.0616658,21.0778932 74.9322925,20.5309087 C75.4790279,20.1873678 75.4697775,20.1869735 75.683885,20.5640275 C75.7641191,20.7053734 75.5727521,20.9751201 74.9956961,21.5340641 C73.9422461,22.5545016 72.4765123,23.2852818 70.9881022,23.5320951 Z M70.1482458,12.9475117 L71.2658703,12.9077561 L71.2255926,12.0956248 C71.0837536,9.23197306 70.3986482,7.66698238 69.2875118,7.66829662 C68.079889,7.66967656 67.1148314,9.25779777 66.7135967,11.9041408 C66.6642614,12.2294139 66.6234056,12.6151417 66.6227632,12.7613503 L66.6216069,13.0271543 L67.826082,13.0072437 C68.4885754,12.9961384 69.5335459,12.969328 70.1482458,12.9475117 Z M84.0303516,23.5380092 C83.2774101,23.6550418 81.7498787,23.6509676 80.7540508,23.5294009 C79.4713972,23.3726784 77.6224155,22.9237359 77.3368103,22.6997903 C77.2412232,22.6246818 77.223943,22.3549351 77.1836653,20.3007863 L77.138377,17.9864189 L77.3196586,17.9159103 C77.7147264,17.7622762 77.7324563,17.7756814 77.9923017,18.4230734 C78.9884508,20.9048742 80.2118764,22.0805229 81.9498537,22.2259429 C83.2289099,22.3328559 84.2053377,21.8095934 84.6935517,20.7556429 C84.8803577,20.3522385 84.8973167,20.2602421 84.8973167,19.6581912 C84.8971882,19.0332726 84.8862677,18.9805061 84.6746655,18.5809787 C84.525953,18.2999953 84.3264276,18.0537735 84.0724922,17.8376476 C83.6405513,17.469859 82.5006361,16.8874559 81.3964375,16.4703835 C79.9932722,15.9404184 79.1694112,15.4454776 78.5358251,14.7517588 C77.799393,13.9456072 77.4663797,13.0228173 77.4607267,11.772783 C77.4566797,10.8923772 77.5785404,10.3292933 77.9310823,9.59884168 C78.5944108,8.22441503 79.863767,7.23604483 81.5759204,6.76088327 C82.1653744,6.59726105 82.2818391,6.58773285 83.7090297,6.58615577 C84.9046399,6.58477582 85.352255,6.60954915 85.8610253,6.70529114 C86.5371373,6.83257477 87.5637356,7.11822369 87.957069,7.2885485 L88.1901269,7.38954744 L88.2377277,9.43633656 C88.2640014,10.56211 88.2656073,11.5034963 88.2413251,11.5282696 C88.2170429,11.5531087 88.0816278,11.6083065 87.9403669,11.6509534 C87.7160455,11.7187022 87.6788513,11.7146938 87.6465392,11.6192147 C87.4384702,11.0038243 87.0110903,10.0065173 86.8032782,9.65127964 C86.1500993,8.53490298 85.4268361,7.93107785 84.4651189,7.69911542 C83.669266,7.50710573 82.9857023,7.59693367 82.4402517,7.96518224 C81.7887431,8.40499088 81.447443,9.11034064 81.4405695,10.0313563 C81.4360728,10.6419498 81.547013,10.9939675 81.8883773,11.4517812 C82.3016889,12.005994 83.3106857,12.6230929 84.9939317,13.3510475 C87.2603363,14.3312037 88.175352,15.0253825 88.7164986,16.1753378 C89.1030869,16.9967345 89.2072178,18.2249525 88.9839884,19.3295011 C88.5217912,21.6169923 86.7595959,23.1141028 84.0303516,23.5380092 Z M11.5048252,22.812223 L11.5048894,22.812223 L11.5048894,23.1738347 L0.00616691264,23.1738347 L0.00616691264,22.4619138 L0.32877353,22.391208 C0.506200746,22.3521752 0.849877648,22.2868577 1.09244288,22.2459193 C1.97379748,22.0968851 2.50749237,21.6049671 2.79418957,20.6767888 C3.14274861,19.5482555 3.21174095,18.3849606 3.2616544,12.7913806 C3.30880558,7.49764324 3.20685881,4.66960731 2.9236305,3.41563027 C2.74132114,2.60842732 2.45179744,2.09600721 1.98099221,1.74714361 C1.67039822,1.51702111 1.38768382,1.43100445 0.61637007,1.33237114 L0.0382220106,1.25844544 L0.0191431246,0.848009939 L0,0.437574443 L17.9152024,0.437574443 L17.9522681,1.4396784 C17.9725675,1.99080272 18.0037233,3.40761344 18.0212605,4.58805904 L18.0531871,6.73433573 L17.5986985,6.87555025 C17.3487458,6.95322152 17.1377217,7.00756512 17.1298204,6.99632842 C17.1218548,6.98509171 17.035775,6.73932982 16.9385176,6.45019819 C16.8412603,6.16100084 16.6211786,5.62111323 16.4494044,5.2502362 C15.6850926,3.59962313 14.7703339,2.64857719 13.4990506,2.18281241 L12.9501311,1.9817345 L10.5914797,1.961561 L8.23282837,1.94145321 L8.20090175,2.09298447 C8.11617094,2.49500886 7.94625965,11.1466816 8.02084075,11.2612171 C8.0611184,11.3231833 8.38205481,11.3264689 9.45150024,11.2758052 C10.2098378,11.2398608 10.960274,11.1798003 11.1192647,11.1422789 C11.7662766,10.9896305 12.2750469,10.5199231 12.6363252,9.7417647 C12.8670063,9.24491827 13.1106636,8.45703457 13.1106636,8.20805281 C13.1106636,8.06959818 13.1379007,8.06000427 13.5282149,8.06000427 L13.9457663,8.06000427 L13.9457663,15.6888081 L13.5536534,15.6692918 L13.1614763,15.6496439 L13.0121857,15.0445046 C12.6734551,13.6715893 11.9969577,12.7884236 11.1193289,12.5734805 C10.8019899,12.4958092 8.08597876,12.385085 8.0250805,12.4473797 C7.95795109,12.5161142 8.06143959,16.9593445 8.165442,18.4717658 C8.3117777,20.5993147 8.68885871,21.5979359 9.50456139,22.0181624 C9.73382921,22.1362464 11.1601205,22.4508085 11.466282,22.4508085 C11.4874808,22.4508085 11.5048252,22.6134451 11.5048252,22.812223 Z M41.1189178,22.8178743 L41.1189178,23.1737033 L31.6690878,23.1737033 L31.6884879,22.8287167 L31.7079522,22.4837301 L32.2783916,22.3697859 C32.5921333,22.3071627 32.9390221,22.2025496 33.0492557,22.1372321 C33.3466807,21.9612561 33.6421786,21.4659867 33.7565235,20.9517267 C33.9802025,19.9458772 34.0574174,12.5784746 33.8641233,10.6885394 C33.7158604,9.23906993 33.364796,8.74327489 32.3707026,8.57971838 C31.6475678,8.46071443 31.6758971,8.4751053 31.6758971,8.22697779 C31.6758971,8.10324259 31.7015926,7.98581572 31.7330053,7.96597078 C31.8088711,7.91800121 32.2512186,7.82278491 35.4338595,7.16941313 C36.9177086,6.86477352 38.2015185,6.59870671 38.286699,6.57820465 L38.4415142,6.54088038 L38.3975107,8.35183009 C38.3623721,9.79880249 38.3699523,10.1626484 38.4354115,10.1621884 C38.4803786,10.1618598 38.6557501,9.90242989 38.825019,9.58569933 C39.8448722,7.67775911 41.2607568,6.59351548 42.8561885,6.49882487 C43.4526446,6.46347196 43.9150346,6.53825191 44.4482798,6.7565463 C44.6973974,6.85853091 44.7827063,6.92529403 44.7618287,7.00191391 C44.7158981,7.17085879 43.2348112,11.1744119 43.2082164,11.2016166 C43.1949833,11.2152189 42.9723963,11.1200683 42.7135787,10.990222 C41.8118604,10.5378624 40.6589047,10.3716117 39.7569937,10.5640156 C39.3128475,10.6587063 38.6847218,10.964003 38.4837832,11.182823 L38.3245355,11.3562363 L38.3245355,15.1129105 C38.3245355,19.9260979 38.4196088,21.1140347 38.8566245,21.7578126 C39.158225,22.2019582 39.4728018,22.3199107 40.6210681,22.419004 L41.1189178,22.4621109 L41.1189178,22.8178743 Z" id="Shape"></path>
                    </g>
                </g>
            </g>
        </g>
    </g>
</svg>