<?xml version="1.0" encoding="UTF-8"?>
<svg width="152px" height="23px" viewBox="0 0 152 23" version="1.1" xmlns="http://www.w3.org/2000/svg" xmlns:xlink="http://www.w3.org/1999/xlink">
    <!-- Generator: Sketch 49.2 (51160) - http://www.bohemiancoding.com/sketch -->
    <title>logo-fastcompany</title>
    <desc>Created with Sketch.</desc>
    <defs></defs>
    <g id="Page-1" stroke="none" stroke-width="1" fill="none" fill-rule="evenodd" opacity="0.600000024">
        <g id="beenest-home" transform="translate(-598.000000, -3951.000000)" fill="#1A1919">
            <g id="module-media" transform="translate(0.000000, 3882.000000)">
                <g id="logo-group" transform="translate(180.000000, 65.000000)">
                    <g id="logo-fastcompany" transform="translate(418.450000, 4.000000)">
                        <path d="M72.2427478,5.50658591 C72.2427478,8.622839 71.9395272,18.2856051 71.9395272,18.2856051 C71.9395272,20.1555333 72.5451119,20.9872986 74.2607926,20.9872986 L74.2607926,21.8181818 L67.5,21.8181818 L67.5,20.9872986 C69.2156807,20.9872986 70.1236295,20.1555333 70.1236295,18.2856051 L70.7292143,2.49353169 C70.2247031,1.24632483 69.7201919,0.830883218 68.4088054,0.726802305 L68.4088054,0 L73.5541343,0 L79.0026839,14.7530283 L84.5514504,0 L89.1931247,0 L89.1931247,0.726802305 C87.8817382,0.726802305 87.1750799,1.35040574 87.1750799,2.80489239 L87.7806647,18.0774433 C87.7806647,20.3636952 88.1841023,20.9872986 90,20.9872986 L90,21.8181818 L82.2310416,21.8181818 L82.2310416,20.9872986 C83.7445751,20.9872986 84.4512334,20.4677761 84.3501599,18.0774433 C84.3501599,18.0774433 84.0469392,7.37651417 83.9467222,5.50658591 L80.2129968,16.1043161 C79.7084856,17.4547219 79.2039744,19.0132894 78.8005368,20.6750559 L77.5902238,20.7791368 C77.2870032,19.6368929 76.4801279,17.5588028 76.4801279,17.5588028 C76.4801279,17.5588028 73.3519872,8.51964013 72.2427478,5.50658591" id="Fill-2"></path>
                        <path d="M65.9006037,22.4162661 C65.4999057,22.3123035 65.1000566,22.3123035 64.7002075,22.3123035 C63.9005094,22.3123035 62.5006131,22.7272727 60.8001934,22.7272727 C54.2998868,22.7272727 49.5,18.6797812 49.5,11.2076925 C49.5,4.8774299 54.0002122,0 60.9003679,0 C62.5006131,0 64.3003584,0.31100664 65.8004292,0.933900957 C66.1001038,0.622013279 66.2002783,0.414969199 66.4999528,0.103081521 L67.1001509,0.103081521 C66.9999764,1.2449076 66.6001273,4.98139246 66.6001273,4.98139246 L65.9999293,4.98139246 C65.6000802,2.80170287 64.4998585,1.34887016 61.0005424,1.34887016 C56.8000047,1.34887016 53.0001651,4.77346735 53.0001651,11.10373 C53.0001651,18.264812 56.9001792,21.3784026 61.2000424,21.3784026 C64.0006839,21.3784026 65.7002547,19.7176447 66.8004763,17.6427987 L67.5,17.9538054 L65.9006037,22.4162661" id="Fill-3"></path>
                        <path d="M47.1840597,4.7342902 L46.4613929,4.7342902 C46.3580296,2.73516917 45.7387261,2.10452598 44.1917811,2.10452598 L41.1995025,2.10452598 L41.1995025,18.6236257 C41.1995025,21.3596881 41.7154428,21.8858196 43.4691143,21.8858196 L43.4691143,22.7272727 L35.7300097,22.7272727 L35.7300097,21.8858196 C37.4845572,21.8858196 38.0004975,21.3596881 38.0004975,18.5182208 L38.0004975,2.10452598 L35.0082189,2.10452598 C33.0478209,2.10452598 32.7377312,2.63065748 32.2217909,4.7342902 L31.5,4.7342902 L32.0159403,0 L32.5318806,0.105404952 C32.7377312,0.631536447 33.1511842,0.631536447 34.3889153,0.631536447 L44.3976317,0.631536447 C46.2546664,0.631536447 46.6681194,0.631536447 47.0806964,0 L47.7,0 L47.1840597,4.7342902" id="Fill-4"></path>
                        <path d="M25.2945554,22.7272727 C23.8736389,22.7272727 22.7577583,22.5211714 21.9451905,22.2107039 C21.1334844,22.0046026 20.524274,21.6941351 20.2200996,21.4880338 C19.8142465,21.9011135 19.5092104,22.4176823 19.5092104,22.4176823 L18.9,22.2107039 L19.4075318,17.3554835 L20.1184209,17.4589727 C20.524274,19.7313491 22.0468692,21.3845447 25.1937384,21.3845447 C27.6297185,21.3845447 29.2531308,19.3182695 29.2531308,17.0458931 C29.2531308,15.1857192 28.5431033,14.2560708 26.1071233,12.3967739 C25.2945554,11.8802052 24.584528,11.4671255 23.9753175,10.9505567 C21.7418332,9.50433953 20.3217783,7.85114399 20.3217783,5.16481088 C20.3217783,2.06539814 22.8585753,0 26.2088019,0 C28.1372503,0 29.3548095,0.619180927 29.7606625,0.826159254 L30.4715517,0 L30.9790834,0.102612137 L30.4715517,4.54475292 L29.7606625,4.44214079 C29.7606625,2.37586563 28.5431033,1.44621721 26.5129763,1.44621721 C24.584528,1.44621721 23.1636114,2.47935479 23.1636114,4.44214079 C23.1636114,6.19794846 24.4828493,7.3345752 26.0054446,8.36771278 C26.8171507,8.88428157 27.4263611,9.2973612 28.0355716,9.71044083 C31.5882939,12.2932848 32.4,13.9464803 32.4,16.4258351 C32.4,20.0418166 29.6589839,22.7272727 25.2945554,22.7272727" id="Fill-5"></path>
                        <path d="M13.0036517,4.81735314 L12.2098315,4.81735314 C12.2098315,2.93237923 11.4151685,2.19972899 9.82668539,2.19972899 L5.36039326,2.19972899 L5.36039326,10.473164 L8.23904494,10.473164 C9.72808989,10.473164 10.0255618,9.63559542 10.2244382,8.27432417 L10.9188202,8.27432417 L10.9188202,14.1390826 L10.2244382,14.1390826 C10.0255618,12.5679746 9.72808989,11.9402428 8.13960674,11.9402428 L5.36039326,11.9402428 L5.36039326,18.9564358 C5.36039326,21.5749491 5.95617978,21.8897041 7.54382022,21.8897041 L7.54382022,22.7272727 L0,22.7272727 L0,21.8897041 C1.88595506,21.8897041 2.18342697,21.3660015 2.18342697,18.9564358 L2.18342697,3.56100025 C2.18342697,2.09481063 1.58848315,1.46618961 0,1.46618961 L0,0.733539376 L10.3230337,0.733539376 C12.1103933,0.733539376 12.5073034,0.628621017 12.8047753,0 L13.5,0 L13.0036517,4.81735314" id="Fill-6"></path>
                        <path d="M122.827653,5.17519519 L122.827653,17.3528852 C122.827653,19.9917437 123.43152,20.4991833 125.041547,20.4991833 L125.041547,21.3107422 L113.1692,21.3107422 L113.1692,20.4991833 C114.074573,20.4991833 114.880013,20.1942026 114.880013,19.5859643 C114.880013,19.1801849 114.779227,18.4694248 114.577653,17.7586646 L113.67228,14.815687 L107.032307,14.815687 C106.93152,15.2214664 105.723786,18.571085 105.723786,19.484304 C105.723786,20.2958629 106.630013,20.4991833 107.233026,20.4991833 L107.233026,21.3107422 L101.7,21.3107422 L101.7,20.4991833 C102.705306,20.4991833 103.510746,20.3975231 104.214546,18.2661043 L109.346133,1.72477789 C109.044627,1.01401777 108.641479,0.811558826 107.93768,0.709898591 L107.93768,0 L112.464546,0 L117.89764,17.3528852 C118.40072,19.1801849 118.9038,20.0934039 119.70924,20.4991833 C120.91612,20.0934039 121.217626,19.686763 121.217626,17.3528852 L121.217626,2.73965718 C120.312253,1.52145742 120.21232,0.709898591 118.501506,0.709898591 L118.501506,0 L123.632239,0 L132.083813,14.5115678 L132.083813,3.4504173 C132.083813,1.21733824 131.580733,0.709898591 129.870773,0.709898591 L129.870773,0 L141.139254,0 L141.139254,0.709898591 C140.4346,0.709898591 139.830733,1.01401777 139.830733,1.72477789 C139.830733,2.23221754 140.032307,2.73965718 140.233026,3.34875707 L143.45308,10.3503904 L146.572347,3.55121601 C147.074573,2.63799695 147.17536,2.1305573 147.17536,1.62311765 C147.17536,1.01401777 146.773067,0.709898591 145.867693,0.709898591 L145.867693,0 L151.2,0 L151.2,0.709898591 C149.892334,0.709898591 149.086893,1.92809836 148.48388,3.34875707 L144.358453,11.8727093 L144.358453,17.4545455 C144.358453,19.8900835 144.96232,20.4991833 146.572347,20.4991833 L146.572347,21.3107422 L138.92536,21.3107422 L138.92536,20.4991833 C140.535387,20.4991833 141.139254,19.8900835 141.139254,17.4545455 L141.139254,12.6851297 L136.71232,3.24709683 C135.90688,1.42065871 135.605373,1.01401777 135.102293,0.709898591 C134.096133,1.115678 133.794627,1.82643812 133.794627,3.4504173 L133.794627,19.0785246 C133.794627,19.0785246 133.894559,20.2958629 133.995346,21.7165216 L132.68768,21.8181818 L122.827653,5.17519519 Z M110.251506,4.16031589 L107.4346,13.3950283 L113.269987,13.3950283 L110.251506,4.16031589 Z" id="Fill-7"></path>
                        <path d="M98.0821195,13.7139833 C98.0821195,13.7139833 97.1445914,13.7139833 96.5207508,13.7139833 L96.5207508,18.1815242 C96.5207508,20.4677761 97.1445914,20.9872986 98.9144961,20.9872986 L98.9144961,21.8181818 L90.9,21.8181818 L90.9,20.9872986 C92.5656367,20.9872986 93.1894773,20.3636952 93.1894773,18.0774433 L93.1894773,3.42849583 C93.1894773,1.14224391 92.5656367,0.726802305 90.9,0.726802305 L90.9,0 L96.9369391,0 C102.765342,0 106.2,1.76584735 106.2,6.54474891 C106.2,11.5326943 102.037234,13.7139833 98.0821195,13.7139833 Z M97.041207,1.45448665 L96.5207508,1.45448665 L96.5207508,12.1554157 L97.4573953,12.1554157 C100.892053,12.1554157 102.661074,10.5968482 102.661074,6.64882982 C102.661074,2.70081148 101.100589,1.45448665 97.041207,1.45448665 Z" id="Fill-8"></path>
                        <path d="M62.1496925,18.1818182 C58.3789572,18.1818182 55.8,15.3928012 55.8,11.3636364 C55.8,7.5414552 58.4783422,4.54545455 62.1496925,4.54545455 C65.7208155,4.54545455 68.4,7.43796337 68.4,11.3636364 C68.4,15.1858175 65.6214305,18.1818182 62.1496925,18.1818182 Z M62.1496925,5.78472531 C59.569893,5.78472531 58.6771123,8.36763571 58.6771123,11.3636364 C58.6771123,14.1535304 59.470508,16.9425474 62.1496925,16.9425474 C64.7286497,16.9425474 65.5228877,14.1535304 65.5228877,11.2601445 C65.5228877,8.47112753 64.5307219,5.78472531 62.1496925,5.78472531 Z" id="Fill-9"></path>
                        <path d="M17.8814228,16.3636364 L17.8814228,15.6505149 C18.9218465,15.6505149 19.1304616,15.3453854 19.1304616,15.0402559 C19.1304616,14.632264 19.0261541,14.3271344 18.9218465,14.0220049 C18.9218465,14.0220049 18.7141153,13.2068855 18.5055002,12.595762 L14.444577,12.595762 L14.0282307,13.9200069 C13.9239231,14.2251365 13.8196155,14.5311304 13.8196155,14.9382579 C13.8196155,15.3453854 14.2368458,15.6505149 14.8618072,15.6505149 L14.8618072,16.3636364 L10.8,16.3636364 L10.8,15.6505149 C11.8413077,15.6505149 12.258538,15.3453854 12.6748842,14.2251365 L15.7988074,5.06174212 C15.6944998,4.65461461 15.3815771,4.34862068 14.7574996,4.34862068 L14.7574996,3.63636364 L18.0891539,3.63636364 C20.7967307,11.3743795 21.5251158,13.4108814 21.5251158,13.4108814 C22.0457696,15.1413894 22.5664235,15.6505149 23.4,15.6505149 L23.4,16.3636364 L17.8814228,16.3636364 Z M16.4228848,6.48712059 L14.8618072,11.4763775 L18.0891539,11.4763775 L16.4228848,6.48712059 Z" id="Fill-10"></path>
                    </g>
                </g>
            </g>
        </g>
    </g>
</svg>