<?xml version="1.0" encoding="UTF-8"?>
<svg width="263px" height="30px" viewBox="0 0 263 30" version="1.1" xmlns="http://www.w3.org/2000/svg" xmlns:xlink="http://www.w3.org/1999/xlink">
    <!-- Generator: Sketch 49.2 (51160) - http://www.bohemiancoding.com/sketch -->
    <title>logo-sfchronicle</title>
    <desc>Created with Sketch.</desc>
    <defs></defs>
    <g id="Page-1" stroke="none" stroke-width="1" fill="none" fill-rule="evenodd" opacity="0.600000024">
        <g id="beenest-home" transform="translate(-997.000000, -3947.000000)" fill="#1A1919">
            <g id="module-media" transform="translate(0.000000, 3882.000000)">
                <g id="logo-group" transform="translate(180.000000, 65.000000)">
                    <g id="logo-sfchronicle" transform="translate(817.000000, 0.000000)">
                        <path d="M33.4491052,9.09090909 C34.5514674,9.47747547 35.8793128,10.9107447 35.97602,12.3786156 L39.1508232,9.09090909 C39.1508232,9.09090909 40.0923407,9.72022835 40.8680029,10.6306868 C41.5168933,11.3665145 41.9377953,12.4126767 41.9377953,13.56751 L41.9377953,19.7179703 C41.9377953,21.0133732 42.8432355,21.2918091 43.2,21.6075501 L40.6084467,24.5454545 C40.6084467,24.5454545 39.6689334,23.9496557 38.8596994,23.0040549 C38.2143164,22.2368693 37.82398,21.3610126 37.82398,20.2099639 L37.82398,14.8266891 C37.82398,13.1468825 36.9811739,12.7630194 36.3648533,12.4840428 L35.97602,12.8327635 L35.97602,19.894223 C35.97602,21.1523208 36.6584825,21.3280328 36.9465999,21.6421518 L34.2593414,24.5454545 C34.2593414,24.5454545 31.8627058,23.1094821 31.8627058,21.3280328 L31.8627058,14.5109482 C31.8627058,13.077679 31.2143164,12.6948972 30.6,12.2742697 L33.4491052,9.09090909 Z M36.5923407,12.2045256 C37.3038654,12.5889293 38.1151038,13.077679 38.1151038,14.6855789 L38.1151038,20.1748215 C38.1151038,22.0962997 39.3457409,23.249511 40.576879,24.1572662 L41.161131,23.4922639 C40.2206156,22.8310462 38.8932713,21.8178638 38.8932713,20.1391385 L38.8932713,14.3357769 C38.8932713,12.6586735 37.8866142,11.8195812 37.2743021,11.5400639 L36.5923407,12.2045256 Z M30.9868289,12.2045256 C31.6357194,12.5527056 32.1538296,13.2528504 32.1538296,14.5460906 L32.1538296,21.2566667 C32.1538296,22.409878 33.094345,23.3538569 34.2593414,24.1572662 L34.8100215,23.5301096 C33.93665,22.8310462 32.9314961,22.3049915 32.9314961,20.9425477 L32.9314961,14.3736225 C32.9314961,12.6948972 32.2505369,11.8547236 31.6021475,11.5752063 L30.9868289,12.2045256 Z" id="Fill-1"></path>
                        <path d="M20.9018039,24.5454545 C19.8143922,23.6365549 18,22.128226 18,19.0096759 C18,16.5561347 19.9438824,14.1383642 23.8347059,14.5242536 L24.1314118,14.5242536 C24.1314118,13.9622208 24.2624314,12.4566018 23.3401961,12.2452298 C23.3075686,12.2820844 22.2211765,13.40344 20.8018824,13.40344 C19.4172549,13.40344 18.8574902,12.7384311 18.5602745,12.3866864 L21.790902,9.09090909 C22.2864314,9.96945786 23.0445098,10.7390688 24.0977647,10.7390688 C24.6570196,10.7390688 25.4166275,10.1456012 26.1757255,9.09090909 C26.1084314,9.09090909 28.3153725,9.5136531 28.3153725,13.4370427 L28.3153725,19.2882534 C28.3153725,20.5526916 29.3380392,21.2534711 29.7,21.4632171 L26.8012549,24.5454545 C26.8012549,24.5454545 24.1625098,23.1102928 24.1625098,21.2177004 L24.1625098,20.9716417 L20.9018039,24.5454545 Z M24.1314118,20.5526916 L24.1314118,14.909059 C23.8347059,14.9453717 22.682549,14.7692283 22.1212549,15.1540338 C21.7241176,15.4353211 20.9339216,16.31116 21.2637647,17.924091 C21.5920784,19.5706247 23.1755294,20.6898124 23.7031765,20.9716417 L24.1314118,20.5526916 Z M18.5602745,17.4330576 C18.3956078,17.7474057 18.2972157,18.5890998 18.2972157,19.1484227 C18.3313725,22.0566847 20.1753333,23.527617 20.8681569,24.1254204 L21.6267451,23.2842682 C20.8681569,22.7596321 19.9132941,21.8491065 19.4519216,20.9716417 C19.0547843,20.2372595 18.4603529,18.7647012 18.6280784,17.3626002 L18.5602745,17.4330576 Z M23.6363922,12.0360257 C24.3613333,12.4208311 24.4286275,13.0159246 24.4286275,14.3128816 L24.4286275,21.042641 C24.4286275,22.2691406 25.5812941,23.424099 26.7686275,24.1942518 L27.4278039,23.4950983 C26.5376863,22.9341495 25.2183137,22.1981413 25.2183137,20.832895 L25.2183137,14.3865908 C25.2183137,12.7037444 25.0867843,11.8262796 24.2624314,11.4403902 L23.6363922,12.0360257 Z M20.6708627,12.4208311 C20.1753333,12.2820844 19.6160784,11.6864489 19.6160784,11.6864489 L18.9563922,12.3525417 C19.1536863,12.7037444 19.8801569,13.0874659 20.7366275,13.1205267 C21.3295294,13.1568393 22.0539608,12.8072625 22.3195686,12.6674318 L22.2864314,12.5612038 C21.9555686,12.6674318 21.2637647,12.5975165 20.6708627,12.4208311 Z" id="Fill-2"></path>
                        <path d="M75.383805,12.8594418 L75.383805,19.417142 C75.383805,20.7094724 76.509837,21.2668743 76.7900166,21.4756976 L74.0408754,24.5454545 C74.0408754,24.5454545 71.417815,23.1166065 71.417815,21.3370216 L71.417815,14.5321869 C71.417815,13.1740258 70.730892,12.6851526 70.2,12.3009608 L72.947692,9.09090909 C73.8858105,9.43948758 75.072226,10.5904441 75.3214892,11.8800766 L77.9150825,9.09090909 L80.1,11.6377983 L77.0397629,14.7782423 L75.383805,12.8594418 Z M70.575344,12.2308134 C71.1695179,12.5804711 71.6989607,13.2749301 71.6989607,14.5672605 L71.6989607,21.1627324 C71.6989607,22.5219726 73.0423734,23.5677081 74.009959,24.1607232 L74.6036498,23.4991795 C73.7602127,22.974693 72.4481995,22.277536 72.4481995,20.916677 L72.4481995,14.3924317 C72.4481995,12.7186075 71.8235923,12.1266716 71.0748365,11.672872 L70.575344,12.2308134 Z M77.0701962,14.3584372 L77.6952864,13.6974331 L75.978462,11.7068665 L75.383805,12.3689498 L77.0701962,14.3584372 Z" id="Fill-3"></path>
                        <path d="M111.689225,9.09090909 C112.134858,9.54833979 112.55088,10.1802879 113.729857,10.2854319 C114.145879,10.3206606 114.720316,10.1456012 115.103274,9.79439848 L115.2,9.86322988 C115.134364,11.0208981 114.367955,12.3162291 113.443626,12.9134905 C112.932357,13.2294646 111.689225,13.6831014 110.923803,13.192068 L110.923803,19.7803708 C110.923803,20.304465 111.4025,21.042641 112.072183,21.042641 C112.677217,21.042641 112.995526,20.621523 113.443626,20.1662602 L113.666195,20.4123189 L109.900773,24.5454545 C109.900773,24.5454545 108.691199,23.9861317 107.891232,23.0382096 C107.254121,22.2691406 106.869683,21.6025059 106.869683,20.2020308 L106.869683,15.1540338 C106.869683,14.5594823 106.774437,14.0332202 106.2,13.8576188 L106.2,13.7551847 L107.955387,11.8615083 C107.923803,11.8262796 110.253134,12.1411697 111.689225,9.09090909 Z M106.616022,13.718872 C107.22155,14.1042195 107.157394,14.7350836 107.157394,15.120431 L107.157394,20.2372595 C107.157394,22.1634546 108.17845,23.2506655 109.869683,24.1942518 L110.411548,23.5655556 C109.359895,22.8994628 107.923803,22.128226 107.923803,20.2372595 L107.923803,14.699313 C107.923803,14.3865908 107.795493,13.40344 107.12581,13.1568393 L106.616022,13.718872 Z M110.923803,11.791051 L110.923803,12.8760939 C111.27419,13.0159246 111.496759,13.0874659 111.881198,13.0874659 C112.390985,13.0874659 113.12433,12.7720339 113.5063,12.4923724 L113.5063,12.4208311 C112.932357,12.4566018 112.615529,12.5270591 112.072183,12.3866864 C111.625563,12.2820844 111.17845,11.9661103 110.923803,11.791051 Z" id="Fill-4"></path>
                        <path d="M67.5,1.09838538 C66.153865,3.272055 63.8734481,4.93659099 60.8708191,4.93659099 C58.3484184,4.93659099 57.793939,4.18996674 55.7229209,4.18996674 C53.8586307,4.18996674 52.717621,5.2781151 52.8559737,6.36363636 L52.7870645,6.36363636 C52.4414496,5.88970598 52.2,5.20981028 52.2,4.42798277 C52.2347217,2.69566738 53.9622617,1.13306321 56.3783604,0.928674164 C58.5904022,0.759488372 62.5962223,1.74307782 64.5641436,1.71050167 C65.7740626,1.67634926 66.878748,1.37160467 67.3611131,0.995402721 L67.5,1.09838538 Z M53.9969835,4.25774614 C54.4804169,3.98662853 55.1353223,3.91884913 55.6887333,3.88364588 C57.1737553,3.81586648 59.0380455,4.63079555 60.8708191,4.63079555 C62.4226136,4.63079555 63.5972767,4.08698408 64.0118009,3.91884913 L63.9770791,3.78171407 C63.0454682,3.84949347 62.0769988,3.78171407 60.8339606,3.57785044 C59.0380455,3.272055 57.0690559,2.90005643 56.3447071,2.90005643 C54.9980378,2.90005643 54.1000803,3.44281706 53.8938866,4.25774614 L53.9969835,4.25774614 Z" id="Fill-5"></path>
                        <path d="M73.8,0.976711525 C73.3379782,3.56502064 71.26143,5.01470261 68.9870181,5.41782551 C68.1950536,5.55202642 67.5698453,5.5171758 66.7110764,5.35020489 L66.7110764,8.61107905 L71.3935091,8.61107905 L67.3383245,13.1531038 L66.7110764,13.1531038 L66.7110764,16.6147592 C66.7110764,17.9609296 66.1179954,19.8787543 64.9965982,21.5926768 C64.00779,23.1411889 62.4253909,24.3489972 61.1071499,25.2592747 C61.1071499,25.2592747 58.1376655,22.2668023 54.8091708,22.2668023 C53.2578792,22.2668023 50.6213972,23.1063383 50.6213972,25.5614868 C50.6213972,27.5786618 52.9279365,29.5630668 56.1600491,29.5630668 C58.3360391,29.5630668 59.3579946,28.8566914 60.0851944,28.4858184 L60.2820382,28.7552605 C59.7889089,29.091283 58.3039118,30 56.0952845,30 C52.4348072,30 49.5,28.0166353 49.5,24.4171379 C49.5,20.6168593 53.1604772,18.1627511 56.886229,18.1627511 C58.5660301,18.1627511 59.5237309,18.3978628 62.1632725,19.6082718 L62.1632725,6.59286375 L63.9741328,4.81184076 C64.6008709,4.6417489 65.4249627,4.44148785 66.4805754,3.53225064 C67.5698453,2.59128377 68.3266227,1.1780129 68.3266227,1.1780129 C68.9870181,1.81624748 70.5021028,2.42275239 71.2272628,2.38946224 C72.7112401,2.28907163 73.2069191,1.64979673 73.6342637,0.909090909 L73.8,0.976711525 Z M63.3479046,5.88648839 L62.4570082,6.76243545 L62.4570082,19.8106135 C62.4570082,19.8106135 62.7543137,20.0119149 62.9200499,20.1450755 C63.0842564,20.2829175 63.3479046,20.5835692 63.3479046,20.5835692 L63.3479046,5.88648839 Z M66.9762544,3.53225064 L66.6779291,3.80117263 L66.6779291,4.94604167 C67.1399509,5.11353274 68.0951019,5.24825381 68.9870181,5.11353274 C69.9090218,4.94604167 70.7994082,4.5413583 70.9641246,4.40767754 L70.9967619,4.30676678 C69.5127846,4.44148785 68.3266227,4.238626 66.9762544,3.53225064 Z M51.4118319,23.1063383 L51.4454891,23.1723984 C52.2700909,22.2668023 53.8198527,21.9619894 54.8091708,21.9286993 C57.709301,21.862119 60.4788819,24.2168769 61.1719145,24.8540711 L62.1632725,24.1149258 C60.7114226,22.5669338 58.3360391,21.0220629 55.0065245,21.0220629 C53.7540681,21.0220629 52.0400999,21.7273979 51.4118319,23.1063383 Z M66.7110764,12.8498513 L67.2047155,12.8498513 L68.0951019,11.8402235 L66.7110764,11.8402235 L66.7110764,12.8498513 Z" id="Fill-6"></path>
                        <path d="M121.763852,19.430252 C121.763852,20.7982083 122.992876,21.2865318 123.3,21.4951939 L120.297889,24.5454545 C120.297889,24.5454545 117.431398,23.1438956 117.431398,21.3580731 L117.431398,14.593627 C117.431398,13.2294646 116.680475,12.7384311 116.1,12.3525417 L119.103694,9.09090909 C120.264644,9.54833979 121.763852,10.7390688 121.763852,12.4923724 L121.763852,19.430252 Z M116.509499,12.2820844 C117.158575,12.6332871 117.737467,13.3308147 117.737467,14.6288556 L117.737467,21.2865318 C117.737467,22.5135734 119.239842,23.6002423 120.264644,24.1942518 L120.911609,23.4950983 C119.990237,22.7937768 118.556992,22.1634546 118.556992,20.7982083 L118.556992,14.4532543 C118.556992,12.8760939 117.840897,12.0360257 117.090501,11.7216776 L116.509499,12.2820844 Z" id="Fill-7"></path>
                        <path d="M126.684273,24.5454545 C126.651952,24.5113098 126.618621,24.5454545 126.618621,24.5454545 C126.260568,24.0907337 125.67223,23.4950983 124.529389,23.3888703 C124.105179,23.3547256 122.994659,23.3200389 122.57045,24.5454545 L122.471467,24.5454545 C122.080588,22.9341495 123.353217,21.1120144 124.823811,20.5526916 C126.454998,19.9207435 127.791763,20.4448376 127.791763,20.4448376 L127.791763,16.5198221 C126.423182,17.0124815 124.823811,17.924091 123.712785,17.6774903 C123.255245,17.5718043 122.895677,17.2558303 122.895677,16.4537006 C122.895677,16.4537006 122.895677,13.8234741 122.895677,13.7882454 C122.895677,13.5443546 122.895677,13.4722714 122.83255,13.3308147 C122.733568,13.1568393 122.538129,13.0874659 122.538129,13.0874659 L122.538129,12.9812379 L123.909235,11.5460762 C123.909235,11.5460762 126.35753,11.7216776 128.283139,9.09090909 C128.739669,9.5136531 129.163879,10.1802879 130.373381,10.2854319 C130.796581,10.3206606 131.809129,10.1802879 132.201018,9.75808586 L132.3,9.82800121 C132.234854,10.9840435 130.829912,12.4208311 129.8512,12.8760939 C128.283139,13.613186 126.879712,12.9812379 126.879712,12.9812379 L126.879712,15.6114645 C128.706339,15.2954904 130.601142,14.1730509 131.288967,14.4191096 C131.711662,14.5594823 131.972753,14.7350836 131.972753,15.6439832 L131.972753,19.3961073 C131.972753,19.7440582 131.972753,20.4448376 131.972753,20.4448376 C131.972753,20.4448376 131.18847,20.4806083 130.730929,20.621523 C130.373381,20.726125 129.979977,20.9022683 129.393659,21.2865318 C127.629149,22.4425741 126.684273,24.5113098 126.684273,24.5454545 Z M126.618621,24.0560471 C126.618621,24.0560471 126.749419,23.8083624 126.845876,23.6365549 C126.944859,23.4604116 127.108482,23.2159788 127.108482,23.2159788 C126.78174,22.9341495 126.227742,22.3374301 125.214689,22.3374301 C123.909235,22.3374301 123.48351,23.0051488 123.418364,23.1780403 L123.48351,23.2159788 C124.071849,22.9341495 124.823811,23.0734382 125.476285,23.2842682 C126.031293,23.4604116 126.423182,23.8083624 126.618621,24.0560471 Z M126.879712,11.4750769 L126.879712,12.6332871 C127.335738,12.8072625 128.022048,12.8760939 128.413937,12.8760939 C128.937634,12.8760939 129.719392,12.7037444 130.112795,12.3866864 L130.112795,12.3162291 C129.42497,12.3162291 128.902788,12.4208311 128.249808,12.212169 C127.695811,12.0360257 127.108482,11.6523042 126.879712,11.4750769 Z M122.863356,12.9812379 C123.191614,13.2294646 123.191614,13.4722714 123.191614,13.8576188 L123.191614,15.8217525 C123.191614,16.4862194 123.191614,16.9062535 123.386548,17.1539381 C123.778942,17.6433456 124.724828,17.3284555 124.724828,17.3284555 C124.105179,16.9425661 123.974381,16.5935313 123.974381,15.8553552 L123.974381,13.5784994 C123.974381,13.2630673 123.974381,12.5975165 123.386548,12.4566018 L122.863356,12.9812379 Z M128.510899,20.832895 C128.706339,20.9358711 128.870467,21.1120144 128.870467,21.1120144 L128.870467,16.8363381 C128.870467,16.6612788 128.902788,16.3810754 128.774515,16.2748474 C128.706339,16.2407027 128.643212,16.1702453 128.579076,16.1702453 L128.086185,16.3810754 L128.086185,20.621523 C128.086185,20.621523 128.34778,20.726125 128.510899,20.832895 Z" id="Fill-8"></path>
                        <path d="M119.313996,2.72727273 L121.5,4.95078855 L118.253763,8.18181818 L116.1,5.99322951 L119.313996,2.72727273 Z M116.545552,5.99322951 L118.253763,7.73152667 L118.97098,7.03459579 L117.227356,5.26352084 L116.545552,5.99322951 Z" id="Fill-9"></path>
                        <path d="M95.5494275,9.09090909 C96.6515267,9.47747547 97.9800573,10.9107447 98.0782443,12.3786156 L101.25229,9.09090909 C101.25229,9.09090909 102.189575,9.72022835 102.966555,10.6306868 C103.614289,11.3665145 104.036093,12.4126767 104.036093,13.56751 L104.036093,19.7179703 C104.036093,21.0133732 104.945324,21.2918091 105.3,21.6075501 L102.709065,24.5454545 C102.709065,24.5454545 101.769776,23.9496557 100.959232,23.0040549 C100.310997,22.2368693 99.9232586,21.3610126 99.9232586,20.2099639 L99.9232586,14.8266891 C99.9232586,13.1468825 99.0821565,12.7630194 98.46448,12.4840428 L98.0782443,12.8327635 L98.0782443,19.894223 C98.0782443,21.1523208 98.7555344,21.3280328 99.0485926,21.6421518 L96.3614742,24.5454545 C96.3614742,24.5454545 93.9634065,23.1094821 93.9634065,21.3280328 L93.9634065,14.5109482 C93.9634065,13.077679 93.3156727,12.6948972 92.7,12.2742697 L95.5494275,9.09090909 Z M98.6929151,12.2045256 C99.404771,12.5889293 100.214313,13.077679 100.214313,14.6855789 L100.214313,20.1748215 C100.214313,22.0962997 101.445157,23.249511 102.675501,24.1572662 L103.258612,23.4922639 C102.320825,22.8310462 100.992295,21.8178638 100.992295,20.1391385 L100.992295,14.3357769 C100.992295,12.6586735 99.9878817,11.8195812 99.3727099,11.5400639 L98.6929151,12.2045256 Z M93.0887405,12.2045256 C93.7364742,12.5527056 94.2554628,13.2528504 94.2554628,14.5460906 L94.2554628,21.2566667 C94.2554628,22.409878 95.19375,23.3538569 96.3614742,24.1572662 L96.9100191,23.5301096 C96.0368559,22.8310462 95.0324427,22.3049915 95.0324427,20.9425477 L95.0324427,14.3736225 C95.0324427,12.6948972 94.3526479,11.8547236 93.7049141,11.5752063 L93.0887405,12.2045256 Z" id="Fill-10"></path>
                        <path d="M83.4587758,23.4994577 C82.3751193,22.6435726 80.566313,21.2232217 80.566313,18.286571 C80.566313,15.9761404 82.5073345,13.6993939 86.3853094,14.0627751 L86.6817767,14.0627751 C86.6817767,13.5335247 86.8139919,12.1157257 85.8920448,11.9166826 C85.8610251,11.9513876 84.7753345,13.0073365 83.3616484,13.0073365 C81.9805076,13.0073365 81.4211354,12.3811164 81.1272108,12.0498884 L84.3481776,8.94634769 C84.8399166,9.77365231 85.5971031,10.4983732 86.6497399,10.4983732 C87.2075865,10.4983732 87.9642646,9.93952153 88.7204341,8.94634769 C88.6543265,8.94634769 90.8577444,9.34443381 90.8577444,13.0389793 L90.8577444,18.5488995 C90.8577444,19.7395853 91.8763103,20.3994896 92.2388852,20.5970016 L89.3443883,23.4994577 C89.3443883,23.4994577 86.715339,22.1480064 86.715339,20.3658054 L86.715339,20.1340989 L83.4587758,23.4994577 Z M86.6817767,19.7395853 L86.6817767,14.4251356 C86.3853094,14.4593301 85.2360538,14.2934609 84.6766816,14.6558214 C84.28207,14.9207018 83.4933552,15.7454545 83.8208422,17.2643062 C84.1508717,18.8148006 85.7288099,19.8687081 86.2530942,20.1340989 L86.6817767,19.7395853 Z M81.1272108,16.8019139 C80.9624502,17.0979266 80.8627803,17.8905263 80.8627803,18.4172249 C80.8943085,21.1558533 82.7361686,22.5409888 83.4272475,23.1039234 L84.1824,22.3118341 C83.4272475,21.817799 82.4732637,20.9603828 82.0130529,20.1340989 C81.6194583,19.4425518 81.0275408,18.0558852 81.1907758,16.7355662 L81.1272108,16.8019139 Z M86.1895291,11.719681 C86.9121363,12.0820415 86.9767184,12.6424242 86.9767184,13.8637321 L86.9767184,20.2009569 C86.9767184,21.3559171 88.1285166,22.4435088 89.3128601,23.16874 L89.9698682,22.5103668 C89.0819919,21.9821372 87.7674673,21.289059 87.7674673,20.003445 L87.7674673,13.9331419 C87.7674673,12.348453 87.634235,11.5221691 86.8139919,11.1587879 L86.1895291,11.719681 Z M83.2294332,12.0820415 C82.7361686,11.9513876 82.1767964,11.3904944 82.1767964,11.3904944 L81.5197883,12.0177352 C81.7176027,12.348453 82.4397013,12.7097927 83.2955408,12.740925 C83.8874583,12.7751196 84.609557,12.445933 84.8719534,12.3142584 L84.8399166,12.2142265 C84.510904,12.3142584 83.8208422,12.2484211 83.2294332,12.0820415 Z" id="Fill-11"></path>
                        <path d="M185.049412,3.37212121 C186.134085,3.73448166 187.187739,5.2538437 187.187739,7.23202552 L187.187739,12.0498884 L190.408197,8.94634769 C190.408197,8.94634769 191.363707,9.57460925 192.150896,10.4325359 C192.80943,11.1251037 193.23557,12.1157257 193.23557,13.2048485 L193.23557,23.2350877 C193.23557,23.5989793 193.136917,30 188.009508,30 C186.003396,30 185.377916,28.3836683 185.377916,28.3836683 L185.608275,28.2188198 C185.608275,28.2188198 186.166122,29.3421372 187.481664,29.3421372 C189.193851,29.3421372 189.061127,27.3925359 189.061127,26.3360766 L189.061127,14.3919617 C189.061127,12.8435088 188.140197,12.2821053 187.580825,12.0820415 L187.187739,12.445933 L187.187739,19.0776396 C187.187739,20.2662839 187.877292,20.430622 188.17376,20.7281659 L185.444023,23.4673046 C185.444023,23.4673046 183.011771,22.1133014 183.011771,20.430622 L183.011771,8.7830303 C183.011771,7.4953748 182.583089,6.83496013 182.025751,6.47362041 L185.049412,3.37212121 Z M187.84373,11.8186922 C188.566337,12.1494099 189.358103,12.8082935 189.358103,14.2613078 L189.358103,26.2375758 C189.358103,27.6926316 189.358103,28.1192982 188.996037,28.8123764 L189.061127,28.8123764 C189.553883,28.516874 190.145292,27.8875917 190.145292,25.8088676 L190.145292,13.9959171 C190.145292,12.4127592 189.224871,11.4889952 188.468701,11.2246252 L187.84373,11.8186922 Z M182.450874,6.43891547 C183.011771,6.77065391 183.307222,7.5954067 183.307222,8.81569378 L183.307222,20.2662839 C183.307222,21.4202233 184.260697,22.3118341 185.444023,23.07126 L186.069503,22.4103349 C185.181627,21.7519617 184.095428,21.2563955 184.095428,19.9707815 L184.095428,8.6508453 C184.095428,7.0676874 183.701833,6.20976077 182.980243,5.91119617 L182.450874,6.43891547 Z" id="Fill-13"></path>
                        <path d="M175.711456,1.35923445 L175.679927,1.49141946 C174.299804,1.49141946 172.424381,1.65626794 170.450306,3.0092504 C167.822782,4.821563 166.278406,8.12363636 166.244335,11.2583094 C166.210265,15.9419458 168.873893,19.0123126 169.630063,19.3404785 C169.334613,18.748453 169.103744,17.6919936 169.103744,16.8335566 C169.103744,15.1524083 170.287579,14.2276236 170.880514,13.963764 L170.880514,7.76229665 C170.880514,7.42953748 170.911534,7.23202552 170.780335,6.90232855 C170.679648,6.63744817 170.385724,6.50679426 170.385724,6.50679426 L170.385724,6.43891547 L172.129439,4.32905901 C173.34582,4.36070175 174.563217,4.16370016 175.221751,3.83349282 C176.073013,3.40376396 177.45568,1.32555024 177.45568,1.32555024 C178.440175,2.1508134 179.098709,2.61167464 180.479849,2.67904306 C181.794883,2.74539075 182.683267,1.82009569 183.011771,1.12752791 L183.176023,1.1938756 C182.747341,3.20625199 181.762337,4.72510367 179.526883,5.51617225 C176.993943,6.40676236 175.416005,5.7800319 175.416005,5.7800319 L175.416005,15.6127592 C175.416005,16.0751515 175.448551,16.50437 175.18412,16.7682297 C174.692381,17.2301116 173.509055,16.6044019 172.424381,16.9325678 C171.338182,17.2643062 169.958058,18.5488995 170.058237,19.6380223 C170.058237,19.6380223 171.865517,21.0241786 175.482622,21.0241786 C178.310502,21.0241786 179.691135,20.1667624 181.433833,18.8148006 L181.564014,18.9127911 C179.889457,23.0385965 176.368972,25.1499841 172.522526,25.1499841 C166.866256,25.1499841 161.609683,20.3321212 161.609683,13.4350239 C161.609683,7.23202552 166.079066,2.28248804 170.978658,1.32555024 C174.231662,0.69830941 175.711456,1.35923445 175.711456,1.35923445 Z M165.355442,4.98896332 L165.256789,4.92210526 C163.48002,6.70481659 161.970732,9.97218501 161.970732,13.4692185 C161.970732,18.9127911 165.355442,22.8410845 169.234943,24.2251994 C172.360816,25.3490271 175.18412,24.5232536 175.746035,24.3242105 L175.845705,24.1930463 C174.398457,24.291547 170.946113,24.0613716 168.873893,22.9069219 C166.408587,21.5192344 165.124065,20.1004147 164.041426,17.7920255 C163.15355,15.910303 162.956244,12.9389474 163.253728,10.895949 C163.842595,6.9691866 165.355442,4.98896332 165.355442,4.98896332 Z M175.416005,5.41767145 C175.416005,5.41767145 175.973852,5.68051037 177.225829,5.64988836 C178.17727,5.61518341 179.294997,5.2538437 179.721137,5.055311 L179.755208,4.98896332 C179.034126,4.98896332 178.112688,4.79094099 177.388555,4.59240829 C176.766126,4.3938756 176.172175,4.03049442 175.90927,3.89933014 L175.416005,4.22902711 L175.416005,5.41767145 Z M170.780335,6.43891547 C170.780335,6.43891547 170.978658,6.63744817 171.04324,6.77065391 C171.176473,7.03349282 171.176473,7.19987241 171.176473,7.4953748 L171.176473,14.193429 C170.780335,14.3919617 170.450306,14.6241786 170.189943,14.8880383 C169.827877,15.2845933 169.433265,15.9419458 169.498865,16.6692185 L169.563955,16.7682297 C169.563955,16.7682297 170.122819,15.8449761 170.946113,15.4489314 C171.404798,15.2182456 171.99875,15.117193 172.19453,15.086571 L172.19453,7.23202552 C172.19453,6.80331738 172.094352,6.47362041 171.931117,6.1107496 C171.832972,5.8785327 171.438869,5.61518341 171.438869,5.61518341 L170.780335,6.43891547 Z" id="Fill-14"></path>
                        <path d="M153,19.4515286 C153,19.4515286 151.160125,20.7891188 150.145004,21.7371671 C149.097012,22.6852154 147.574576,24.5454545 147.574576,24.5454545 C147.574576,24.5454545 145.607627,23.3860648 144.815745,22.4374732 C144.179884,21.6659955 143.546476,20.9629729 143.546476,19.5944149 L143.546476,15.0975692 C143.546476,14.3239184 143.419893,14.0430353 143.1,13.903952 L143.1,13.7974663 L144.845674,11.8991966 C144.815745,11.8644257 147.258608,11.3401469 149.446833,9.09090909 C149.923729,9.47719123 150.431044,9.86238679 151.095361,10.4246962 C151.730731,10.9511483 153,11.62103 153,13.2357002 C153,13.2357002 153,19.4178443 153,19.4515286 Z M148.969938,20.5049759 L148.969938,15.4132231 C148.969938,14.1131202 148.272748,13.621439 147.574576,13.2020159 L147.574576,18.3301694 C147.574576,18.8555349 147.892507,19.52433 148.399822,20.0170978 C148.621588,20.2268093 148.748171,20.3322084 148.969938,20.5049759 Z M143.483185,13.7974663 C143.895317,14.0788927 143.833497,14.7808287 143.833497,15.1676542 L143.833497,19.7324117 C143.833497,21.5953673 145.829884,23.0698676 147.543176,24.1580858 L148.081401,23.5251481 C147.033898,22.8606994 144.593488,21.4877951 144.593488,19.5944149 L144.593488,14.7455146 C144.593488,14.4287741 144.593488,13.4100976 144.021409,13.2020159 L143.483185,13.7974663 Z M147.574576,11.7601133 L147.574576,12.8135606 C147.892507,13.0243588 148.209946,13.1645286 148.495004,13.4454117 C148.969938,13.903952 149.255486,14.4999457 149.255486,15.3425949 L149.255486,20.7168607 L149.953657,21.3139409 L150.016459,21.2454859 L150.016459,15.2018817 C150.016459,14.1131202 149.732382,13.4801825 149.224086,12.8852755 C148.558296,12.0752239 147.574576,11.7601133 147.574576,11.7601133 Z" id="Fill-16"></path>
                        <path d="M139.588262,9.09090909 C140.036979,9.54833979 140.449166,10.1802879 141.631922,10.2854319 C142.04559,10.3206606 142.621172,10.1456012 143.004234,9.79439848 L143.1,9.86322988 C143.036321,11.0208981 142.269702,12.3162291 141.344131,12.9134905 C140.83371,13.2294646 139.588262,13.6831014 138.823124,13.192068 L138.823124,19.7803708 C138.823124,20.304465 139.299484,21.042641 139.970832,21.042641 C140.578993,21.042641 140.896896,20.621523 141.344131,20.1662602 L141.567749,20.4123189 L137.801788,24.5454545 C137.801788,24.5454545 136.589414,23.9861317 135.791202,23.0382096 C135.151942,22.2691406 134.768879,21.6025059 134.768879,20.2020308 L134.768879,15.1540338 C134.768879,14.5594823 134.672126,14.0332202 134.1,13.8576188 L134.1,13.7551847 L135.852907,11.8615083 C135.821808,11.8262796 138.151283,12.1411697 139.588262,9.09090909 Z M134.513668,13.718872 C135.119362,14.1042195 135.05667,14.7350836 135.05667,15.120431 L135.05667,20.2372595 C135.05667,22.1634546 136.07998,23.2159788 137.770195,24.1942518 L138.312209,23.5655556 C137.258293,22.8994628 135.821808,22.128226 135.821808,20.2372595 L135.821808,14.699313 C135.821808,14.3865908 135.69593,13.40344 135.023596,13.1568393 L134.513668,13.718872 Z M138.823124,11.791051 L138.823124,12.8760939 C139.1741,13.0159246 139.396237,13.0874659 139.780781,13.0874659 C140.291202,13.0874659 141.024748,12.7720339 141.406823,12.4923724 L141.406823,12.4208311 C140.83371,12.4566018 140.51482,12.5270591 139.970832,12.3866864 C139.524583,12.2820844 139.079816,11.9661103 138.823124,11.791051 Z" id="Fill-17"></path>
                        <path d="M199.584794,12.8599946 L199.584794,19.4173186 C199.584794,20.7073105 200.710936,21.265174 200.990177,21.4734286 L198.240767,24.5454545 C198.240767,24.5454545 195.619866,23.1130294 195.619866,21.3363906 L195.619866,14.5330456 C195.619866,13.1723766 194.932393,12.6835716 194.4,12.3015916 L197.147477,9.09090909 C198.085204,9.44159698 199.271735,10.5907742 199.521989,11.8818452 L202.11342,9.09090909 L204.3,11.6374427 L201.24043,14.7758295 L199.584794,12.8599946 Z M194.774898,12.2298354 C195.369129,12.5794443 195.900556,13.2765039 195.900556,14.5670353 L195.900556,21.1599676 C195.900556,22.5200971 197.241685,23.5678446 198.210814,24.1607769 L198.805046,23.4971675 C197.961526,22.9749123 196.648902,22.2767737 196.648902,20.9177232 L196.648902,14.3927704 C196.648902,12.7197194 196.025683,12.1262476 195.275888,11.673051 L194.774898,12.2298354 Z M201.270867,14.3603992 L201.896501,13.6962503 L200.178543,11.7081198 L199.584794,12.3690316 L201.270867,14.3603992 Z" id="Fill-18"></path>
                        <path d="M215.1,19.452788 C215.1,19.452788 213.260742,20.7858444 212.24542,21.7348458 C211.19771,22.6827608 209.671538,24.5454545 209.671538,24.5454545 C209.671538,24.5454545 207.70518,23.3856846 206.913141,22.4366832 C206.279607,21.6642275 205.645093,20.9623902 205.645093,19.5934814 L205.645093,15.0956383 C205.645093,14.3231826 205.514558,14.0434255 205.2,13.9016456 L205.2,13.7989775 L206.945529,11.9009746 C206.913141,11.8656654 209.355016,11.3371146 211.54711,9.09090909 C212.020665,9.47822336 212.530534,9.86282154 213.19253,10.4255951 C213.828026,10.9525164 215.1,11.620131 215.1,13.2345742 C215.1,13.2345742 215.1,19.4169356 215.1,19.452788 Z M211.067666,20.5039144 L211.067666,15.4123342 C211.067666,14.1129573 210.369847,13.6218885 209.671538,13.1992651 L209.671538,18.3272408 C209.671538,18.854162 209.98904,19.5206902 210.498909,20.0133887 C210.719248,20.2247004 210.849291,20.3289982 211.067666,20.5039144 Z M205.580316,13.7989775 C205.994493,14.0776482 205.927754,14.7811152 205.927754,15.167343 L205.927754,19.7320019 C205.927754,21.5941524 207.929935,23.0700751 209.63964,24.1581403 L210.179935,23.526378 C209.134188,22.8582202 206.688877,21.4898546 206.688877,19.5934814 L206.688877,14.7452628 C206.688877,14.4318262 206.688877,13.4116632 206.121101,13.1992651 L205.580316,13.7989775 Z M209.671538,11.7608244 L209.671538,12.8135804 C209.98904,13.0232625 210.307034,13.1628695 210.59313,13.4464291 C211.067666,13.9016456 211.354744,14.498642 211.354744,15.3428024 L211.354744,20.7179422 L212.053053,21.3143953 L212.116848,21.2426905 L212.116848,15.2010225 C212.116848,14.1129573 211.831734,13.4801086 211.322846,12.8836555 C210.655453,12.0758907 209.671538,11.7608244 209.671538,11.7608244 Z" id="Fill-19"></path>
                        <path d="M251.312824,18.2501818 C251.312824,19.6704318 252.480653,20.0760682 252.774874,20.2449091 L249.913641,23.2181818 C249.913641,23.2181818 247.182168,21.8313864 247.182168,20.1079545 L247.182168,8.07738636 C247.182168,6.75906818 246.759194,6.217 246.140576,5.84690909 L249.003318,2.73772727 C250.109285,3.10886364 251.312824,4.69847727 251.312824,6.18302273 L251.312824,18.2501818 Z M246.594732,5.81293182 C247.149979,6.15061364 247.476891,6.85943182 247.476891,8.11031818 L247.476891,19.9396364 C247.476891,21.2574318 248.710103,22.0692273 249.878938,22.846 L250.466374,22.2380682 C249.587232,21.5616591 248.251924,21.0216818 248.251924,19.6369773 L248.251924,8.00786364 C248.251924,6.38636364 247.830459,5.54268182 247.0851,5.27243182 L246.594732,5.81293182 Z" id="Fill-20"></path>
                        <path d="M258.072856,15.7494545 L258.072856,18.5883864 C258.072856,19.0959545 258.562721,19.80425 259.245212,19.80425 C259.864835,19.80425 260.186215,19.4001818 260.642382,18.9579545 L260.937609,19.2297727 L257.036797,23.2511136 C257.036797,23.2511136 255.765865,22.6787273 254.953615,21.7655227 C254.303312,21.0216818 253.946224,20.0760682 253.946224,18.9914091 L253.946224,14.1608864 C253.946224,13.5858864 253.717888,13.1122955 253.262726,13.0124545 L253.262726,12.91 L255.048671,11.0835909 C255.016985,11.0501364 257.978806,11.1186136 259.699368,8.38161364 C259.699368,8.38161364 260.220415,9.09043182 261.100059,10.0046818 C261.846424,10.7804091 262.658674,11.7275909 262.952894,11.9962727 C262.952894,11.9962727 258.921318,15.0725227 258.072856,15.7494545 Z M259.278406,14.3966364 L258.072856,12.8091136 L258.072856,15.3093182 L259.278406,14.3966364 Z M253.654015,12.8760227 C254.270118,13.2471591 254.237426,13.8561364 254.237426,14.2283182 L254.237426,19.0274773 C254.237426,20.91975 255.309697,21.9688636 257.003603,22.8784091 L257.620712,22.2694318 C256.546429,21.6635909 255.016985,21.0216818 255.016985,18.9579545 L255.016985,13.8221591 C255.016985,13.5174091 254.857553,12.5048864 254.17305,12.3370909 L253.654015,12.8760227 Z M258.072856,10.98375 L258.072856,12.2320227 L259.538426,14.1932955 L260.220415,13.6527955 L258.138741,10.9157955 L258.072856,10.98375 Z" id="Fill-22"></path>
                        <path d="M242.190044,9.09090909 C242.637305,9.54833979 243.05297,10.1802879 244.233322,10.2854319 C244.647507,10.3206606 245.221639,10.1456012 245.604723,9.79439848 L245.7,9.86322988 C245.637798,11.0208981 244.868175,12.3162291 243.944529,12.9134905 C243.434079,13.2294646 242.190044,13.6831014 241.421902,13.192068 L241.421902,19.7803708 C241.421902,20.304465 241.900757,21.042641 242.571154,21.042641 C243.177867,21.042641 243.498256,20.621523 243.944529,20.1662602 L244.168159,20.4123189 L240.402978,24.5454545 C240.402978,24.5454545 239.189551,23.9861317 238.390308,23.0382096 C237.754468,22.2691406 237.369409,21.6025059 237.369409,20.2020308 L237.369409,15.1540338 C237.369409,14.5594823 237.2766,14.0332202 236.7,13.8576188 L236.7,13.7551847 L238.455965,11.8615083 C238.424864,11.8262796 240.755455,12.1411697 242.190044,9.09090909 Z M237.115172,13.718872 C237.722379,14.1042195 237.659684,14.7350836 237.659684,15.120431 L237.659684,20.2372595 C237.659684,22.1634546 238.709215,23.2506655 240.370397,24.1942518 L240.914415,23.5655556 C239.861428,22.8994628 238.424864,22.128226 238.424864,20.2372595 L238.424864,14.699313 C238.424864,14.3865908 238.296511,13.40344 237.627102,13.1568393 L237.115172,13.718872 Z M241.421902,11.791051 L241.421902,12.8760939 C241.772898,13.0159246 241.998503,13.0874659 242.381093,13.0874659 C242.892529,13.0874659 243.625128,12.7720339 244.009692,12.4923724 L244.009692,12.4208311 C243.434079,12.4566018 243.116159,12.5270591 242.571154,12.3866864 C242.126855,12.2820844 241.680089,11.9661103 241.421902,11.791051 Z" id="Fill-24"></path>
                        <path d="M235.163176,19.430252 C235.163176,20.7982083 236.394853,21.2865318 236.7,21.4951939 L233.699736,24.5454545 C233.699736,24.5454545 230.831456,23.1438956 230.831456,21.3580731 L230.831456,14.593627 C230.831456,13.2294646 230.080202,12.7384311 229.5,12.3525417 L232.500792,9.09090909 C233.664364,9.54833979 235.163176,10.7390688 235.163176,12.4923724 L235.163176,19.430252 Z M229.911263,12.2820844 C230.559569,12.6332871 231.139243,13.3308147 231.139243,14.6288556 L231.139243,21.2865318 C231.139243,22.5135734 232.640695,23.6002423 233.664364,24.1942518 L234.312143,23.4950983 C233.390365,22.7937768 231.954905,22.1634546 231.954905,20.7982083 L231.954905,14.4532543 C231.954905,12.8760939 231.239023,12.0360257 230.490409,11.7216776 L229.911263,12.2820844 Z" id="Fill-25"></path>
                        <path d="M232.713555,2.72727273 L234.9,4.95078855 L231.651538,8.18181818 L229.5,5.99322951 L232.713555,2.72727273 Z M229.943213,5.99322951 L231.651538,7.73152667 L232.37189,7.03459579 L230.628129,5.26352084 L229.943213,5.99322951 Z" id="Fill-26"></path>
                        <path d="M218.849994,9.09090909 C219.952312,9.47747547 221.278602,10.9107447 221.374303,12.3786156 L224.549982,9.09090909 C224.549982,9.09090909 225.491462,9.72022835 226.268597,10.6306868 C226.917461,11.3665145 227.338848,12.4126767 227.338848,13.56751 L227.338848,19.7179703 C227.338848,21.0133732 228.242248,21.2918091 228.6,21.6075501 L226.009051,24.5454545 C226.009051,24.5454545 225.069074,23.9496557 224.261876,23.0040549 C223.61251,22.2368693 223.223693,21.3610126 223.223693,20.2099639 L223.223693,14.8266891 C223.223693,13.1468825 222.379417,12.7630194 221.766127,12.4840428 L221.374303,12.8327635 L221.374303,19.894223 C221.374303,21.1523208 222.055736,21.3280328 222.347851,21.6421518 L219.659196,24.5454545 C219.659196,24.5454545 217.260651,23.1094821 217.260651,21.3280328 L217.260651,14.5109482 C217.260651,13.077679 216.614292,12.6948972 216,12.2742697 L218.849994,9.09090909 Z M221.992102,12.2045256 C222.704601,12.5889293 223.516809,13.077679 223.516809,14.6855789 L223.516809,20.1748215 C223.516809,22.0962997 224.746395,23.249511 225.976482,24.1572662 L226.559208,23.4922639 C225.61873,22.8310462 224.294946,21.8178638 224.294946,20.1391385 L224.294946,14.3357769 C224.294946,12.6586735 223.287327,11.8195812 222.671531,11.5400639 L221.992102,12.2045256 Z M216.387315,12.2045256 C217.037682,12.5527056 217.553267,13.2528504 217.553267,14.5460906 L217.553267,21.2566667 C217.553267,22.409878 218.493244,23.3538569 219.659196,24.1572662 L220.209854,23.5301096 C219.335014,22.8310462 218.328898,22.3049915 218.328898,20.9425477 L218.328898,14.3736225 C218.328898,12.6948972 217.649469,11.8547236 217.001105,11.5752063 L216.387315,12.2045256 Z" id="Fill-27"></path>
                        <path d="M58.1838381,5.45454545 L61.2,5.45454545 L61.2,11.3084554 C61.2,14.3353803 59.5459595,15.9307768 57.1146406,16.3636364 L57.1146406,12.106669 C57.1146406,12.106669 56.2700349,12.106669 56.0745848,12.140164 C55.0370412,12.3395886 55.0370412,12.6379525 54.9079135,13.1037918 L54.842596,13.1037918 C54.3250803,12.6060033 54,11.8062438 54,11.0755357 C54,9.41211835 55.33097,8.08159059 57.1146406,8.01614635 L57.1146406,6.51917379 L58.1838381,5.45454545 Z M57.372896,6.6175978 L57.372896,8.01614635 L58.1838381,8.01614635 L58.1838381,5.81938421 L57.372896,6.6175978 Z M55.4932589,12.0082449 C55.9133008,11.7727487 56.4981438,11.7727487 57.4065597,11.8062438 L57.4065597,15.997767 C57.4065597,15.997767 57.7296301,15.9307768 57.8592603,15.8967664 C57.9888904,15.8658479 58.2808095,15.7323829 58.2808095,15.7323829 C58.2808095,15.7323829 58.2808095,12.140164 58.2808095,10.9085756 L57.0814794,10.9085756 C56.6910816,10.9085756 56.2373761,11.0069996 56.0439358,11.1090308 C55.6866992,11.2759909 55.3937753,11.6068193 55.3937753,11.9726886 L55.4932589,12.0082449 Z" id="Fill-28"></path>
                        <path d="M3.38451429,9.24311688 C4.94485714,10.7838961 7.10228571,11.4212987 9.4932,11.7579221 C12.7789714,12.2275325 16.0323429,12.9314286 15.8996571,16.3516883 C15.8322857,17.9257143 14.8026857,18.8987013 14.2395429,19.3693506 L14.1392571,19.3007792 C14.2066286,19.134026 14.1732,18.865974 14.1073714,18.6654545 C12.9116571,14.9761039 1.89154286,17.827013 2.12245714,11.1542857 C2.1564,10.2166234 2.62234286,9.27480519 3.01937143,8.77350649 C3.01937143,8.77350649 3.08674286,8.97454545 3.38451429,9.24311688 Z M2.4876,10.6846753 C2.42177143,11.12 2.35542857,12.2935065 3.05331429,13.4348052 C3.81651429,14.6748052 6.00737143,15.4457143 8.19822857,15.7802597 C10.3227429,16.1168831 12.2137714,16.518961 13.2773143,17.1215584 C13.8744,17.4576623 14.4714857,18.1958442 14.4056571,18.7994805 L14.4714857,18.7994805 C15.0027429,18.3631169 15.2362286,16.6187013 13.4424,15.7142857 C12.2482286,15.1101299 10.3551429,14.8088312 8.36537143,14.5080519 C6.90325714,14.2722078 5.80834286,14.1724675 4.61262857,13.4348052 C3.6828,12.8649351 2.88668571,12.2623377 2.556,10.6846753 L2.4876,10.6846753 Z" id="Fill-29"></path>
                        <path d="M2.95251429,4.51532468 C4.01554286,1.19636364 7.50188571,0.28987013 9.95811429,0.324155844 C12.2482286,0.357402597 14.9688,1.69818182 15.6666857,2.30181818 L13.2773143,5.31896104 C12.4801714,4.78337662 9.55851429,2.80519481 7.0704,2.80519481 C5.44217143,2.80519481 3.64988571,3.30909091 3.61748571,4.7174026 C3.55011429,6.76363636 8.69605714,6.8961039 11.1852,7.46805195 C17.658,8.97454545 17.9907429,11.9927273 17.7577714,14.5392208 C17.3268,19.2005195 13.1441143,23.2581818 11.3189143,24.7002597 C11.3189143,24.7002597 8.82977143,21.3797403 4.87697143,21.3797403 C3.15308571,21.3797403 0.962228571,22.3875325 0.962228571,24.3314286 C0.962228571,26.9132468 3.58354286,28.4545455 6.14005714,28.5558442 C7.66748571,28.6238961 9.12805714,27.8503896 9.39291429,27.7168831 L9.52611429,28.0197403 C8.59525714,28.4228571 7.56771429,28.9262338 6.00737143,28.9262338 C3.38451429,28.9262338 0,27.1818182 0,23.694026 C0,19.4015584 4.01554286,17.2909091 6.97062857,17.2909091 C11.5164,17.2909091 13.4084571,19.8046753 14.0739429,20.4415584 C14.1732,20.5096104 16.3630286,18.6654545 16.5636,16.5522078 C17.0285143,11.4550649 11.4510857,11.1880519 9.85731429,10.9194805 C7.10228571,10.4488312 1.26102857,9.77974026 2.95251429,4.51532468 Z M1.89154286,21.8509091 L1.95737143,21.9511688 C2.2896,21.5485714 3.81651429,20.9428571 5.04462857,21.0109091 C8.69605714,21.1792208 10.5228,23.4275325 11.3842286,24.2654545 L12.3474857,23.4275325 C10.9851429,21.9828571 8.3988,20.2067532 5.742,20.2067532 C3.71725714,20.2067532 2.42177143,20.9802597 1.89154286,21.8509091 Z M7.60011429,2.53818182 C8.69605714,2.67116883 9.65828571,2.93974026 10.4898857,3.30909091 C11.7838286,3.91168831 12.8124,4.64935065 13.2433714,4.91636364 L13.9083429,4.04571429 C13.3426286,3.67792208 12.0137143,2.90545455 10.8864,2.47064935 C10.0908,2.16779221 8.59525714,1.86597403 7.60011429,2.47064935 L7.60011429,2.53818182 Z" id="Fill-31"></path>
                    </g>
                </g>
            </g>
        </g>
    </g>
</svg>