<svg xmlns="http://www.w3.org/2000/svg" xmlns:xlink="http://www.w3.org/1999/xlink" width="24" height="24" viewBox="0 0 24 24">
  <defs>
    <path id="facebook-circle-a" d="M12,24 C5.372583,24 0,18.627417 0,12 C0,5.372583 5.372583,-1.77635684e-15 12,-1.77635684e-15 C18.627417,-1.77635684e-15 24,5.372583 24,12 C24,18.627417 18.627417,24 12,24 Z M15.8888889,7.324 L15.8888889,5.098 C15.6445755,5.067375 14.8077319,5 13.8342226,5 C11.8020219,5 10.4100908,6.159375 10.4100908,8.29 L10.4100908,10.124875 L8.11111111,10.124875 L8.11111111,12.61425 L10.4100908,12.61425 L10.4100908,19 L13.1593185,19 L13.1593185,12.61425 L15.4526818,12.61425 L15.7962183,10.124875 L13.1593185,10.124875 L13.1593185,8.535875 C13.1593185,7.81575 13.3736778,7.324875 14.4791725,7.324875 L15.8888889,7.324 Z"/>
  </defs>
  <g fill="none" fill-rule="evenodd">
    <rect width="24" height="24"/>
    <mask id="facebook-circle-b" fill="#fff">
      <use xlink:href="#facebook-circle-a"/>
    </mask>
    <use xlink:href="#facebook-circle-a"/>
    <g mask="url(#facebook-circle-b)">
      <rect width="24" height="24"/>
    </g>
  </g>
</svg>
