<svg xmlns="http://www.w3.org/2000/svg" width="22" height="14" viewBox="0 0 22 14">
  <g fill="none" fill-rule="evenodd" transform="translate(-5 -9)">
    <path fill="#DC4E41" d="M12,17.4 L15.97,17.4 C15.81,18.43 14.77,20.42 12,20.42 C9.61,20.42 7.66,18.44 7.66,16 C7.66,13.56 9.61,11.58 12,11.58 C13.36,11.58 14.27,12.16 14.79,12.66 L16.69,10.83 C15.47,9.69 13.89,9 12,9 C8.13,9 5,12.13 5,16 C5,19.87 8.13,23 12,23 C16.04,23 18.72,20.16 18.72,16.16 C18.72,15.7 18.67,15.35 18.61,15 L12,15 L12,17.4 Z"/>
    <polyline fill="#DC4E41" points="27 15 25 15 25 13 23 13 23 15 21 15 21 17 23 17 23 19 25 19 25 17 27 17"/>
    <polygon points="0 0 32 0 32 32 0 32"/>
  </g>
</svg>
