<?xml version="1.0" encoding="UTF-8"?>
<svg width="24px" height="24px" viewBox="0 0 24 24" version="1.1" xmlns="http://www.w3.org/2000/svg" xmlns:xlink="http://www.w3.org/1999/xlink">
    <defs>
        <path d="M15.4427719,7.26021519 L2.59270042,7.26021519 L8.53160482,1.29674523 C8.80993003,0.991252555 8.80993003,0.526726498 8.53160482,0.221233824 C8.38875504,0.0795875225 8.19492661,0 7.99280927,0 C7.79069192,0 7.5968635,0.0795875225 7.45401371,0.221233824 C7.45401371,0.221233824 0.34029193,7.33245103 0.218759098,7.44481789 C0.0827490054,7.60784642 0.00573831671,7.81128232 0,8.02270462 C0.00897604686,8.21900903 0.0862721311,8.40618303 0.218759098,8.55243411 L7.51072903,15.7760182 C7.65109433,15.9192028 7.8439933,16 8.04547349,16 C8.24695369,16 8.43985266,15.9192028 8.58021796,15.7760182 C8.85854316,15.4705255 8.85854316,15.0059994 8.58021796,14.7005068 L2.59270042,8.82532507 L15.4427719,8.82532507 C15.7752651,8.71706474 16,8.40954616 16,8.06283564 C16,7.71612512 15.7752651,7.40860653 15.4427719,7.30034621 L15.4427719,7.26021519 Z" id="path-1"></path>
    </defs>
    <g id="-Icon/Utility/arrow-left" stroke="none" stroke-width="1" fill="none" fill-rule="evenodd">
        <g id="Arrow" transform="translate(4.000000, 4.000000)">
            <mask id="mask-2" fill="white">
                <use xlink:href="#path-1"></use>
            </mask>
            <use id="Mask" fill="currentColor" fill-rule="nonzero" xlink:href="#path-1"></use>
        </g>
    </g>
</svg>