<svg xmlns="http://www.w3.org/2000/svg" xmlns:xlink="http://www.w3.org/1999/xlink" width="24" height="24" viewBox="0 0 24 24">
  <defs>
    <path id="arrow-right-a" d="M0.55720808,8.76730458 L13.4068175,8.76730458 L7.47622853,14.7059223 C7.19791333,15.0101419 7.19791333,15.472732 7.47622853,15.7769516 C7.61658877,15.9195395 7.80948081,16 8.01095376,16 C8.21242671,16 8.40531874,15.9195395 8.54567899,15.7769516 C8.54567899,15.7769516 15.659145,8.69536977 15.7806734,8.58347119 C15.9294408,8.41275794 16.007546,8.19301408 15.9994247,7.96802898 C15.9895817,7.76554699 15.9127432,7.5718272 15.7806734,7.41652881 L8.48896571,0.223048396 C8.34860546,0.0804604994 8.15571342,0 7.95424048,0 C7.75276753,0 7.55987549,0.0804604994 7.41951524,0.223048396 C7.14120005,0.527267956 7.14120005,0.989858141 7.41951524,1.2940777 L13.366308,7.23269542 L0.55720808,7.23269542 C0.224726838,7.34050458 0,7.64674161 0,7.99200724 C0,8.33727288 0.224726838,8.64350991 0.55720808,8.75131907 L0.55720808,8.76730458 Z"/>
  </defs>
  <g fill="none" fill-rule="evenodd" transform="translate(4 4)">
    <mask id="arrow-right-b" fill="#fff">
      <use xlink:href="#arrow-right-a"/>
    </mask>
    <use fill-rule="nonzero" xlink:href="#arrow-right-a"/>
    <g mask="url(#arrow-right-b)">
      <rect width="24" height="24" transform="translate(-4 -4)"/>
    </g>
  </g>
</svg>
