<?xml version="1.0" encoding="UTF-8"?>
<svg width="24px" height="24px" viewBox="0 0 24 24" version="1.1" xmlns="http://www.w3.org/2000/svg" xmlns:xlink="http://www.w3.org/1999/xlink">
    <defs>
        <path d="M10.3643197,12.7948667 L15.787478,18.7108537 C16.0412867,19.013914 16.0412867,19.4747413 15.787478,19.7778016 C15.659477,19.9198461 15.4835697,20 15.2998371,20 C15.1161045,20 14.9401972,19.9198461 14.8121961,19.7778016 L8.22165497,12.6117338 C8.0842202,12.4666802 8.0047006,12.2695813 8,12.0623353 C8.02013677,11.8042167 8.12801285,11.5632026 8.30292846,11.38554 L14.8269731,4.21947229 C14.9572399,4.07895382 15.1339947,4 15.3183083,4 C15.502622,4 15.6793768,4.07895382 15.8096435,4.21947229 C16.0634522,4.52253255 16.0634522,4.98335991 15.8096435,5.28642016 L10.3569312,11.2422187 L9.82495927,11.7916172 C9.77257248,11.8472726 9.7387924,11.9200795 9.72890878,11.9986369 C9.72890878,12.0702976 9.82495927,12.1817698 9.82495927,12.1817698 L10.3643197,12.7948667 Z" id="path-1"></path>
    </defs>
    <g id="-Icon/Utility/carat-left" stroke="none" stroke-width="1" fill="none" fill-rule="evenodd">
        <mask id="mask-2" fill="white">
            <use xlink:href="#path-1"></use>
        </mask>
        <use id="Mask" fill="#000000" fill-rule="nonzero" xlink:href="#path-1"></use>
        <g id="/Color/Utility/Black" mask="url(#mask-2)" fill="#000000">
            <rect id="Rectangle" x="0" y="0" width="24" height="24"></rect>
        </g>
    </g>
</svg>