<svg xmlns="http://www.w3.org/2000/svg" xmlns:xlink="http://www.w3.org/1999/xlink" width="24" height="24" viewBox="0 0 24 24">
  <defs>
    <path id="carat-down-a" d="M12.7660673,13.6291113 L18.7057009,8.19088536 C19.0099725,7.93637155 19.4726418,7.93637155 19.7769134,8.19088536 C19.9195257,8.31924207 20,8.49563808 20,8.67988116 C20,8.86412424 19.9195257,9.04052024 19.7769134,9.16887695 L12.5822025,15.7777292 C12.4365691,15.9155458 12.2386824,15.9952863 12.030608,16 C11.7983115,15.9743853 11.5817843,15.8779549 11.4150605,15.725866 L4.22034954,9.183695 C4.07926941,9.05306636 4,8.87582042 4,8.6909947 C4,8.50616897 4.07926941,8.32892304 4.22034954,8.19829439 C4.52462114,7.94378057 4.98729046,7.94378057 5.29156206,8.19829439 L11.2311957,13.6365203 L11.7827902,14.1699703 C11.838668,14.2225026 11.911766,14.2563766 11.9906374,14.2662876 C12.0625845,14.2662876 12.1745022,14.1699703 12.1745022,14.1699703 L12.7660673,13.6291113 Z"/>
  </defs>
  <g fill="none" fill-rule="evenodd">
    <mask id="carat-down-b" fill="#fff">
      <use xlink:href="#carat-down-a"/>
    </mask>
    <use fill="currentColor" fill-rule="nonzero" xlink:href="#carat-down-a"/>
    <g mask="url(#carat-down-b)">
      <rect width="24" height="24"/>
    </g>
  </g>
</svg>
