<?xml version="1.0" encoding="UTF-8"?>
<svg width="24px" height="24px" viewBox="0 0 24 24" version="1.1" xmlns="http://www.w3.org/2000/svg" xmlns:xlink="http://www.w3.org/1999/xlink">
    <defs>
        <path d="M13.6291113,11.2339327 L8.19088536,5.29429907 C7.93637155,4.99002747 7.93637155,4.52735815 8.19088536,4.22308655 C8.31924207,4.08047426 8.49563808,4 8.67988116,4 C8.86412424,4 9.04052024,4.08047426 9.16887695,4.22308655 L15.7777292,11.4177975 C15.9155458,11.5634309 15.9952863,11.7613176 16,11.969392 C15.9743853,12.2016885 15.8779549,12.4182157 15.725866,12.5849395 L9.183695,19.7796505 C9.05306636,19.9207306 8.87582042,20 8.6909947,20 C8.50616897,20 8.32892304,19.9207306 8.19829439,19.7796505 C7.94378057,19.4753789 7.94378057,19.0127095 8.19829439,18.7084379 L13.6365203,12.7927867 L14.1699703,12.2411922 C14.2225026,12.1853144 14.2563766,12.1122164 14.2662876,12.033345 C14.2662876,11.9613979 14.1699703,11.8494802 14.1699703,11.8494802 L13.6291113,11.2339327 Z" id="path-1"></path>
    </defs>
    <g id="-Icon/Utility/carat-right" stroke="none" stroke-width="1" fill="none" fill-rule="evenodd">
        <mask id="mask-2" fill="white">
            <use xlink:href="#path-1"></use>
        </mask>
        <use id="Mask" fill="currentColor" fill-rule="nonzero" xlink:href="#path-1"></use>
        <g id="/Color/Utility/Black" mask="url(#mask-2)">
            <rect id="Rectangle" x="0" y="0" width="24" height="24"></rect>
        </g>
    </g>
</svg>