<svg xmlns="http://www.w3.org/2000/svg" xmlns:xlink="http://www.w3.org/1999/xlink" width="24" height="24" viewBox="0 0 24 24">
  <defs>
    <path id="check-circle-a" d="M12,2 C6.48,2 2,6.48 2,12 C2,17.52 6.48,22 12,22 C17.52,22 22,17.52 22,12 C22,6.48 17.52,2 12,2 Z M10.7669627,16.9999992 C10.6154493,17.0002481 10.4697861,16.9442203 10.3608327,16.8437858 L6.16852385,12.9134562 C6.06084048,12.8145175 6,12.6780387 6,12.5354197 C6,12.3928006 6.06084048,12.2563219 6.16852385,12.1573832 C6.39519724,11.9550105 6.74755982,11.9550105 6.97423321,12.1573832 L10.5376958,15.5003504 C10.5833619,15.5422309 10.6459882,15.5628956 10.7090219,15.5568828 C10.7720556,15.55087 10.829152,15.5187848 10.8652199,15.4691077 L16.9637193,7.20229358 C17.1612298,6.9713544 17.5156604,6.93255684 17.7628781,7.11481406 C17.8864886,7.19641463 17.9697187,7.322704 17.9932272,7.46433436 C18.0167356,7.60596472 17.9784753,7.7506034 17.8873373,7.86463847 L11.2123955,16.800046 C11.1117718,16.9206651 10.9611759,16.9936323 10.7997151,16.9999992 L10.7669627,16.9999992 Z"/>
  </defs>
  <g fill-rule="evenodd">
    <g fill-rule="nonzero">
      <use xlink:href="#check-circle-a"/>
      <use filter="url(#user-b)"/>
    </g>
    <!-- Removed <mask> because Safari would render this SVG as a square. See here for more info: https://github.com/thebeetoken/beenest/pull/445 -->
  </g>
</svg>
