<svg xmlns="http://www.w3.org/2000/svg" xmlns:xlink="http://www.w3.org/1999/xlink" width="24" height="24" viewBox="0 0 24 24">
  <defs>
    <path id="check-a" d="M6.35595022,13.9999988 C6.15393245,14.0003473 5.95971478,13.9219084 5.81444366,13.7813001 L0.224698463,8.27883861 C0.0811206457,8.14032446 0,7.94925423 0,7.74958755 C0,7.54992088 0.0811206457,7.35885064 0.224698463,7.22033649 C0.526929652,6.9370147 0.996746428,6.9370147 1.29897762,7.22033649 L6.05026103,11.9004905 C6.11114921,11.9591232 6.1946509,11.9880539 6.27869585,11.979636 C6.3627408,11.971218 6.43886929,11.9262988 6.48695987,11.8567507 L14.6182923,0.28321101 C14.8816397,-0.0401038457 15.3542138,-0.0944204299 15.6838375,0.16073969 C15.8486514,0.274980487 15.959625,0.451785603 15.9909696,0.650068103 C16.0223141,0.848350604 15.9713004,1.05084475 15.8497831,1.21049386 L6.94986065,13.7200644 C6.81569576,13.8889311 6.61490122,13.9910852 6.39962011,13.9999988 L6.35595022,13.9999988 Z"/>
  </defs>
  <g fill-rule="evenodd" transform="translate(4 5)">
    <use fill-rule="nonzero" xlink:href="#check-a"/>
  </g>
</svg>
