<svg xmlns="http://www.w3.org/2000/svg" xmlns:xlink="http://www.w3.org/1999/xlink" width="24" height="24" viewBox="0 0 24 24">
  <defs>
    <path id="edit-circle-a" d="M12,22 C17.5228475,22 22,17.5228475 22,12 C22,6.4771525 17.5228475,2 12,2 C6.4771525,2 2,6.4771525 2,12 C2,17.5228475 6.4771525,22 12,22 Z M6.20082894,15.2406326 C6.20082894,15.0865857 6.26156774,14.9388481 6.36968348,14.8299205 L12.6814274,8.47077883 C12.9065668,8.24394876 13.2715898,8.24394876 13.4967292,8.47077883 L15.4596922,10.4484826 C15.6848316,10.6753126 15.6848316,11.0430768 15.4596922,11.2699069 L9.14794828,17.6290485 C9.03983253,17.7379761 8.89319611,17.7991711 8.74029735,17.7991711 L6.77733441,17.7991711 C6.45893923,17.7991711 6.20082894,17.5391225 6.20082894,17.2183363 L6.20082894,15.2406326 Z M7.41766898,14.9475285 L8.9411858,16.6639003 L8.63795605,16.9694072 L7.02440819,16.9694072 L7.02440819,15.3437425 L7.41766898,14.9475285 Z M7.94096469,14.4203031 L13.0890783,9.23352999 L14.7026262,10.8591947 L9.46921277,16.1319082 L7.94096469,14.4203031 Z M16.1444985,10.6670553 L13.3662337,7.86792723 L14.7290152,6.49491197 C15.1182033,6.10280127 15.7478463,6.10280127 16.1370344,6.49491197 L17.50728,7.87544731 C17.8964681,8.26755801 17.8964681,8.90192932 17.50728,9.29404001 L16.1444985,10.6670553 Z M16.1444985,9.49359196 L16.9249215,8.70730835 C16.9924819,8.6392406 16.9924819,8.53024672 16.9249215,8.46217897 L15.554676,7.08164363 C15.4871156,7.01357588 15.3789341,7.01357588 15.3113736,7.08164363 L14.5309506,7.86792723 L16.1444985,9.49359196 Z"/>
  </defs>
  <g fill-rule="evenodd">
    <g fill-rule="nonzero">
      <use xlink:href="#edit-circle-a"/>
      <use filter="url(#edit-circle-b)"/>
    </g>
    <!-- Removed <mask> because Safari would render this SVG as a square. See here for more info: https://github.com/thebeetoken/beenest/pull/445 -->
  </g>
</svg>
