<svg xmlns="http://www.w3.org/2000/svg" xmlns:xlink="http://www.w3.org/1999/xlink" width="24" height="24" viewBox="0 0 24 24">
  <defs>
    <path id="hamburger-a" d="M3,4.77419355 C3,4.34661826 3.34661826,4 3.77419355,4 L20.2258065,4 C20.6533817,4 21,4.34661826 21,4.77419355 C21,5.20176884 20.6533817,5.5483871 20.2258065,5.5483871 L3.77419355,5.5483871 C3.34661826,5.5483871 3,5.20176884 3,4.77419355 Z M3,12 C3,11.5724247 3.34661826,11.2258065 3.77419355,11.2258065 L20.2258065,11.2258065 C20.6533817,11.2258065 21,11.5724247 21,12 C21,12.4275753 20.6533817,12.7741935 20.2258065,12.7741935 L3.77419355,12.7741935 C3.34661826,12.7741935 3,12.4275753 3,12 Z M3,19.2258065 C3,18.7982312 3.34661826,18.4516129 3.77419355,18.4516129 L20.2258065,18.4516129 C20.6533817,18.4516129 21,18.7982312 21,19.2258065 C21,19.6533817 20.6533817,20 20.2258065,20 L3.77419355,20 C3.34661826,20 3,19.6533817 3,19.2258065 Z"/>
  </defs>
  <g fill="none" fill-rule="evenodd">
    <mask id="hamburger-b" fill="#fff">
      <use xlink:href="#hamburger-a"/>
    </mask>
    <use xlink:href="#hamburger-a"/>
    <g mask="url(#hamburger-b)">
      <rect width="24" height="24"/>
    </g>
  </g>
</svg>
