<svg xmlns="http://www.w3.org/2000/svg" xmlns:xlink="http://www.w3.org/1999/xlink" width="24" height="24" viewBox="0 0 24 24">
  <defs>
    <path id="plus-circle-a" d="M12,3 C7.02943725,3 3,7.02943725 3,12 C3,16.9705627 7.02943725,21 12,21 C16.9705627,21 21,16.9705627 21,12 C21,7.02943725 16.9705627,3 12,3 Z M17.52,12.48 L12.62,12.48 C12.5316344,12.48 12.46,12.5516344 12.46,12.64 C12.46,14.16 12.46,17.55 12.46,17.55 C12.4494927,17.7979091 12.2480801,17.9949432 12,18 C11.7332381,18.0000556 11.5154441,17.7867064 11.51,17.52 L11.51,12.67 C11.5252857,12.6280147 11.5252857,12.5819853 11.51,12.54 C11.51,12.54 11.39,12.54 11.39,12.54 L6.53,12.54 C6.33549185,12.5404782 6.15992359,12.4235246 6.08542382,12.2438487 C6.01092405,12.0641727 6.05222239,11.8572989 6.19,11.72 C6.28250161,11.6334841 6.40339891,11.5837029 6.53,11.58 L11.43,11.58 C11.5183656,11.58 11.59,11.5083656 11.59,11.42 C11.59,9.9 11.59,6.51 11.59,6.51 C11.5664488,6.25715382 11.7479986,6.03132349 12,6 C12.2667619,5.99994444 12.4845559,6.21329365 12.49,6.48 L12.49,11.33 C12.4747143,11.3719853 12.4747143,11.4180147 12.49,11.46 C12.49,11.46 12.61,11.46 12.61,11.46 L17.47,11.46 C17.6645082,11.4595218 17.8400764,11.5764754 17.9145762,11.7561513 C17.989076,11.9358273 17.9477776,12.1427011 17.81,12.28 C17.7395474,12.3783772 17.6369921,12.449105 17.52,12.48 Z"/>
  </defs>
  <g fill-rule="evenodd">
    <!-- Removed <mask> because Safari would render this SVG as a square. See here for more info: https://github.com/thebeetoken/beenest/pull/445 -->
    <g fill-rule="nonzero">
      <use xlink:href="#plus-circle-a"/>
      <use filter="url(#plus-circle-b)"/>
    </g>
  </g>
</svg>