<svg xmlns="http://www.w3.org/2000/svg" xmlns:xlink="http://www.w3.org/1999/xlink" width="24" height="24" viewBox="0 0 24 24">
  <defs>
    <path id="question-a" d="M11.9917789,18.6176734 C12.3048028,18.6001644 12.6112866,18.7129926 12.8400863,18.9299672 C13.0728463,19.1553626 13.1978426,19.4717216 13.1828368,19.79745 C13.1735304,20.458038 12.6443402,20.9899245 11.9917789,20.9945762 C11.681267,21.0078748 11.3795704,20.8882215 11.160609,20.6649328 C10.9358472,20.4341539 10.8123119,20.1214926 10.8178585,19.79745 C10.8155184,19.4823236 10.9387268,19.179541 11.1596413,18.9575244 C11.3805558,18.7355079 11.680531,18.6129959 11.9917789,18.6176734 Z M17.9805572,7.90411841 C18.1495496,9.87303894 17.2068623,11.7700172 15.5445106,12.8061972 L15.1850939,13.0386669 C13.8272974,13.8775794 12.8389014,14.5749886 12.6292417,16.9097931 C12.5931322,17.2374887 12.3158963,17.4830729 11.9902786,17.4758063 L11.9403596,17.4758063 C11.7742899,17.4680249 11.6182925,17.3929418 11.5074945,17.267464 C11.3966964,17.1419862 11.3404121,16.9766623 11.3513156,16.8087193 C11.6208781,13.8775794 12.9986422,12.9780227 14.4662604,12.0178217 L14.8156934,11.785352 C16.0980352,10.9820293 16.8240492,9.51593744 16.6926473,7.99508482 C16.5428904,6.25661564 14.5061956,4.23513983 11.9902786,4.23513983 C9.46119861,4.17289345 7.35865774,6.19299798 7.2879099,8.75313825 C7.24738671,9.08197944 6.97129344,9.32878645 6.64395495,9.32878645 C6.31661646,9.32878645 6.04052319,9.08197944 6,8.75313825 C6.08706943,5.4910947 8.76803353,2.91717618 11.9902786,3.00203959 C15.2649643,3.00203959 17.7708975,5.57942124 17.9805572,7.90411841 Z"/>
  </defs>
  <g fill="none" fill-rule="evenodd">
    <mask id="question-b" fill="#fff">
      <use xlink:href="#question-a"/>
    </mask>
    <use fill-rule="nonzero" xlink:href="#question-a"/>
    <g mask="url(#question-b)">
      <rect width="24" height="24"/>
    </g>
  </g>
</svg>
