<svg xmlns="http://www.w3.org/2000/svg" xmlns:xlink="http://www.w3.org/1999/xlink" width="24" height="24" viewBox="0 0 24 24">
  <defs>
    <path id="trash-circle-a" d="M9.27610102,6.75 L7.55567776,6.75 C7.24886133,6.75 7.00013748,7.01116723 7.00013748,7.33333333 C7.00013748,7.65549944 7.24886133,7.91666667 7.55567776,7.91666667 L16.4443222,7.91666667 C16.7511387,7.91666667 16.9998625,7.65549944 16.9998625,7.33333333 C16.9998625,7.01116723 16.7511387,6.75 16.4443222,6.75 L14.7031569,6.75 C14.4327701,5.59809583 13.4631678,5 11.9601211,5 C10.4593791,5 9.50551642,5.60082634 9.27610102,6.75 Z M10.4482819,6.75 C10.6472297,6.35119361 11.1176193,6.16666667 11.9601211,6.16666667 C12.7973626,6.16666667 13.2853197,6.35322851 13.5125078,6.75 L10.4482819,6.75 Z M12,22 C6.4771525,22 2,17.5228475 2,12 C2,6.4771525 6.4771525,2 12,2 C17.5228475,2 22,6.4771525 22,12 C22,17.5228475 17.5228475,22 12,22 Z M7.55567776,8.5 C7.21238751,8.5 6.95125963,8.82367258 7.0076962,9.17923274 L8.48913695,18.5125661 C8.53378276,18.7938424 8.76554867,19 9.03711851,19 L14.9628815,19 C15.2344513,19 15.4662172,18.7938424 15.5108631,18.5125661 L16.9923038,9.17923274 C17.0487404,8.82367258 16.7876125,8.5 16.4443222,8.5 L7.55567776,8.5 Z M9.50773173,17.8333333 L8.21147107,9.66666667 L15.7885289,9.66666667 L14.4922683,17.8333333 L9.50773173,17.8333333 Z M9.36440113,11.4709319 L9.91994141,16.1375985 C9.94848333,16.3773573 10.1567235,16.5474247 10.3850589,16.5174549 C10.6133942,16.4874851 10.7753588,16.2688269 10.7468169,16.0290681 L10.1912766,11.3624015 C10.1627347,11.1226427 9.95449452,10.9525753 9.72615916,10.9825451 C9.4978238,11.0125149 9.33585921,11.2311731 9.36440113,11.4709319 Z M13.2531831,16.0290681 C13.2246412,16.2688269 13.3866058,16.4874851 13.6149411,16.5174549 C13.8432765,16.5474247 14.0515167,16.3773573 14.0800586,16.1375985 L14.6355989,11.4709319 C14.6641408,11.2311731 14.5021762,11.0125149 14.2738408,10.9825451 C14.0455055,10.9525753 13.8372653,11.1226427 13.8087234,11.3624015 L13.2531831,16.0290681 Z M11.5833448,11.4166667 L11.5833448,16.0833333 C11.5833448,16.3249579 11.7698877,16.5208333 12,16.5208333 C12.2301123,16.5208333 12.4166552,16.3249579 12.4166552,16.0833333 L12.4166552,11.4166667 C12.4166552,11.1750421 12.2301123,10.9791667 12,10.9791667 C11.7698877,10.9791667 11.5833448,11.1750421 11.5833448,11.4166667 Z"/>
  </defs>
  <g fill-rule="evenodd">
    <mask id="trash-circle-b" fill="#fff">
      <use xlink:href="#trash-circle-a"/>
    </mask>
    <use fill-rule="nonzero" xlink:href="#trash-circle-a"/>
  </g>
</svg>
