<svg xmlns="http://www.w3.org/2000/svg" xmlns:xlink="http://www.w3.org/1999/xlink" width="24" height="24" viewBox="0 0 24 24">
    <path d="M4.14413863,11.0890273 L7.56544152,14.449477 C7.8039751,14.6846079 7.79354085,15.0560716 7.54213599,15.2791644 C7.29073112,15.5022572 6.89355754,15.4924984 6.65502396,15.2573675 L2.17229195,10.8528463 C1.93370172,10.6176596 1.94420571,10.24609 2.19575042,10.0230232 L6.67848243,6.16100349 C6.92996741,5.93798968 7.32713746,5.94787327 7.56558658,6.18307911 C7.80403569,6.41828494 7.79346803,6.78974535 7.54198305,7.01275916 L4.16176996,9.91526722 L17.2709162,9.91526722 C19.8313503,9.91526722 22.0433345,11.5289026 22.0433345,13.9576336 C22.0433345,16.82624 20.2933748,18 17.2709162,18 L13.1377805,18 C12.7912222,18 12.5102812,17.7372449 12.5102812,17.41312 C12.5102812,17.0889951 12.7912222,16.82624 13.1377805,16.82624 L17.2709162,16.82624 C19.5350086,16.82624 20.869776,16.2296431 20.869776,13.9576336 C20.869776,12.2058092 19.0560612,11.0890273 17.2709162,11.0890273 L4.14413863,11.0890273 Z"/>
</svg>
