<svg xmlns="http://www.w3.org/2000/svg" xmlns:xlink="http://www.w3.org/1999/xlink" width="24" height="24" viewBox="0 0 24 24">
  <defs>
    <path id="x-circle-a" d="M10,0 C15.52,0 20,4.48 20,10 C20,15.52 15.52,20 10,20 C4.48,20 0,15.52 0,10 C0,4.48 4.48,0 10,0 Z M10.7459468,10.1055697 C10.7160811,10.0763075 10.6992511,10.0362556 10.6992511,9.9944437 C10.6992511,9.95263184 10.7160811,9.91257988 10.7459468,9.88331767 L14.863166,5.79943627 C14.9525602,5.71390078 15.0027993,5.59533643 15.0020735,5.4716145 C15.0036723,5.34609804 14.9534159,5.22548257 14.863166,5.13823643 C14.6769595,4.95392119 14.37706,4.95392119 14.1908535,5.13823643 L10.1180847,9.19433632 C10.0847795,9.22395277 10.0447128,9.24494007 10.0014024,9.25545564 C9.95283545,9.2472728 9.90810256,9.2239339 9.87360747,9.18878002 L5.81195127,5.14379273 C5.6257448,4.95947749 5.32584529,4.95947749 5.13963882,5.14379273 C4.95596953,5.32809866 4.95596953,5.62624295 5.13963882,5.81054888 L9.25685803,9.89443028 C9.28672365,9.92369249 9.30355364,9.96374444 9.30355364,10.0055563 C9.30355364,10.0473682 9.28672365,10.0874201 9.25685803,10.1166823 L5.13963882,14.2005637 C5.05036469,14.2873898 5,14.40663 5,14.5311636 C5,14.6556973 5.05036469,14.7749375 5.13963882,14.8617636 C5.32584529,15.0460788 5.6257448,15.0460788 5.81195127,14.8617636 L9.88472007,10.8056637 C9.91802529,10.7760472 9.95809195,10.7550599 10.0014024,10.7445444 C10.0499693,10.7527272 10.0947022,10.7760661 10.1291973,10.81122 L14.1908535,14.8562073 C14.37706,15.0405225 14.6769595,15.0405225 14.863166,14.8562073 C15.0468353,14.6719013 15.0468353,14.3737571 14.863166,14.1894511 L10.7459468,10.1055697 Z"/>
  </defs>
  <g fill-rule="evenodd" transform="translate(2 2)">
    <g fill-rule="nonzero">
      <use xlink:href="#x-circle-a"/>
      <use filter="url(#x-circle-b)"/>
    </g>
    <!-- Removed <mask> because Safari would render this SVG as a square. See here for more info: https://github.com/thebeetoken/beenest/pull/445 -->
  </g>
</svg>
