<svg xmlns="http://www.w3.org/2000/svg" xmlns:xlink="http://www.w3.org/1999/xlink" width="24" height="24" viewBox="0 0 24 24">
  <defs>
    <path id="x-a" d="M13.0443255,12.1477976 C13.0025136,12.1068305 12.9789516,12.0507578 12.9789516,11.9922212 C12.9789516,11.9336846 13.0025136,11.8776118 13.0443255,11.8366447 L18.8084323,6.11921078 C18.9335842,5.9994611 19.003919,5.833471 19.0029029,5.6602603 C19.0051413,5.48453726 18.9347822,5.3156756 18.8084323,5.193531 C18.5477433,4.93548967 18.127884,4.93548967 17.8671949,5.193531 L12.1653186,10.8720709 C12.1186913,10.9135339 12.062598,10.9429161 12.0019634,10.9576379 C11.9339696,10.9461819 11.8713436,10.9135075 11.8230505,10.864292 L6.13673178,5.20130982 C5.87604272,4.94326849 5.45618341,4.94326849 5.19549435,5.20130982 C4.93835734,5.45933813 4.93835734,5.87674012 5.19549435,6.13476843 L10.9596012,11.8522024 C11.0014131,11.8931695 11.0249751,11.9492422 11.0249751,12.0077788 C11.0249751,12.0663154 11.0014131,12.1223882 10.9596012,12.1633553 L5.19549435,17.8807892 C5.07051057,18.0023457 5,18.169282 5,18.3436291 C5,18.5179762 5.07051057,18.6849125 5.19549435,18.806469 C5.45618341,19.0645103 5.87604272,19.0645103 6.13673178,18.806469 L11.8386081,13.1279291 C11.8852354,13.0864661 11.9413287,13.0570839 12.0019634,13.0423621 C12.0699571,13.0538181 12.1325831,13.0864925 12.1808762,13.135708 L17.8671949,18.7986902 C18.127884,19.0567315 18.5477433,19.0567315 18.8084323,18.7986902 C19.0655694,18.5406619 19.0655694,18.1232599 18.8084323,17.8652316 L13.0443255,12.1477976 Z"/>
  </defs>
  <g fill="none" fill-rule="evenodd">
    <mask id="x-b" fill="#fff">
      <use xlink:href="#x-a"/>
    </mask>
    <use fill="currentColor" fill-rule="nonzero" xlink:href="#x-a"/>
  </g>
</svg>
