<svg xmlns="http://www.w3.org/2000/svg" xmlns:xlink="http://www.w3.org/1999/xlink" width="24" height="24" viewBox="0 0 24 24">
  <defs>
    <path id="admin-booking-icon-a" d="M0.5,0 L17.5,0 C17.7761424,-2.01283612e-15 18,0.223857625 18,0.5 L18,19.5 C18,19.7761424 17.7761424,20 17.5,20 L0.5,20 C0.223857625,20 3.38176876e-17,19.7761424 0,19.5 L0,0.5 C-3.38176876e-17,0.223857625 0.223857625,5.07265313e-17 0.5,0 Z M8.28412658,6.66666667 L14.3625787,6.66666667 C14.588533,6.66666667 14.7717053,6.41793597 14.7717053,6.11111111 C14.7717053,5.80428625 14.588533,5.55555556 14.3625787,5.55555556 L8.28412658,5.55555556 C8.05817221,5.55555556 7.875,5.80428625 7.875,6.11111111 C7.875,6.41793597 8.05817221,6.66666667 8.28412658,6.66666667 Z M8.28412658,11.1111111 L14.3625787,11.1111111 C14.588533,11.1111111 14.7717053,10.8623804 14.7717053,10.5555556 C14.7717053,10.2487307 14.588533,10 14.3625787,10 L8.28412658,10 C8.05817221,10 7.875,10.2487307 7.875,10.5555556 C7.875,10.8623804 8.05817221,11.1111111 8.28412658,11.1111111 Z M8.28412658,15.5555556 L14.3625787,15.5555556 C14.588533,15.5555556 14.7717053,15.3068249 14.7717053,15 C14.7717053,14.6931751 14.588533,14.4444444 14.3625787,14.4444444 L8.28412658,14.4444444 C8.05817221,14.4444444 7.875,14.6931751 7.875,15 C7.875,15.3068249 8.05817221,15.5555556 8.28412658,15.5555556 Z M6.62917504,4.55007168 L4.68813723,6.48029976 L3.88625555,5.58471539 C3.74344706,5.42521923 3.50877191,5.42180826 3.36209392,5.57709676 C3.21541593,5.73238527 3.21227908,5.98756867 3.35508757,6.14706483 L4.40758824,7.3225539 C4.54725048,7.47853616 4.77558238,7.48573711 4.92332353,7.33881874 L7.12947765,5.1449508 C7.28054704,4.99472272 7.29101643,4.73977057 7.15286168,4.57549924 C7.01470693,4.4112279 6.78024444,4.3998436 6.62917504,4.55007168 Z M6.62917504,8.99451612 L4.68813723,10.9247442 L3.88625555,10.0291598 C3.74344706,9.86966368 3.50877191,9.8662527 3.36209392,10.0215412 C3.21541593,10.1768297 3.21227908,10.4320131 3.35508757,10.5915093 L4.40758824,11.7669983 C4.54725048,11.9229806 4.77558238,11.9301816 4.92332353,11.7832632 L7.12947765,9.58939524 C7.28054704,9.43916716 7.29101643,9.18421501 7.15286168,9.01994368 C7.01470693,8.85567235 6.78024444,8.84428804 6.62917504,8.99451612 Z M6.62917504,13.4389606 L4.68813723,15.3691886 L3.88625555,14.4736043 C3.74344706,14.3141081 3.50877191,14.3106971 3.36209392,14.4659857 C3.21541593,14.6212742 3.21227908,14.8764576 3.35508757,15.0359537 L4.40758824,16.2114428 C4.54725048,16.367425 4.77558238,16.374626 4.92332353,16.2277076 L7.12947765,14.0338397 C7.28054704,13.8836116 7.29101643,13.6286595 7.15286168,13.4643881 C7.01470693,13.3001168 6.78024444,13.2887325 6.62917504,13.4389606 Z"/>
  </defs>
  <g fill-rule="evenodd" transform="translate(3 2)">
    <g fill-rule="nonzero">
      <use xlink:href="#admin-booking-icon-a"/>
      <use filter="url(#admin-listing-icon-b)" xlink:href="#admin-listing-icon-a"/>
    </g>
    <!-- Removed <mask> because Safari would render this SVG as a square. See here for more info: https://github.com/thebeetoken/beenest/pull/445 -->
  </g>
</svg>
