<svg xmlns="http://www.w3.org/2000/svg" xmlns:xlink="http://www.w3.org/1999/xlink" width="24" height="24" viewBox="0 0 24 24">
  <defs>
    <path id="admin-listing-icon-a" d="M9.31919183,10.2198071 L9.31919183,8.34474084 C9.31919183,8.10542573 9.12512059,7.9114225 8.88572159,7.9114225 L5.55133507,7.9114225 C5.31007347,7.91134712 5.11278173,8.10363916 5.1067502,8.34474084 L5.1067502,10.2186482 C2.53492405,10.2179396 0.638255504,10.2174171 0.588656466,10.2174171 C0.4322969,10.2174171 0.282352159,10.155275 0.171858151,10.044682 C0.0618940305,9.93613004 0,9.78807513 0,9.63358512 C0,9.47909511 0.0618940305,9.3310402 0.171858151,9.22248824 L9.58594276,0.167246079 C9.81472717,-0.0557486931 10.1796404,-0.0557486931 10.4084248,0.167246079 L14.1540523,3.76712149 L14.1540523,1.86718725 C14.1510545,1.75035128 14.1953966,1.63725899 14.2770153,1.55357691 C14.3586339,1.46989483 14.4706072,1.42271976 14.5875225,1.42275818 L16.4103205,1.42275818 C16.6558579,1.42275818 16.8549054,1.62173585 16.8549054,1.86718725 L16.8549054,6.36703151 L19.8225094,9.22248824 L19.9999472,9.63126323 C20.0020357,9.78575765 19.942134,9.93465144 19.833624,10.044682 C19.7241436,10.1607228 19.5708082,10.2252624 19.4112684,10.2224536 C19.3307403,10.2225357 14.2021551,10.2211469 9.31919183,10.2198071 Z M5.1067502,10.2246601 L5.1067502,11.589073 C5.11278173,11.8301747 5.31007347,12.0224667 5.55133507,12.0223913 L8.88572159,12.0223913 C9.12512059,12.0223913 9.31919183,11.8283881 9.31919183,11.589073 L9.31919183,10.2246601 L10.8085511,10.2246601 L16.7326445,10.2246601 L17.9107944,10.2246601 L17.9107944,19.4221352 C17.9108231,19.5773108 17.8484077,19.7259749 17.7376032,19.8346506 C17.6267988,19.9433264 17.4769207,20.0028772 17.3217195,19.999893 L2.67264804,19.999893 C2.51744682,20.0028772 2.36756876,19.9433264 2.25676428,19.8346506 C2.14595981,19.7259749 2.08354438,19.5773108 2.08357309,19.4221352 L2.08357308,10.2246601 L3.26172299,10.2246601 L5.1067502,10.2246601 Z M11.6532624,13.6778896 L11.6532624,18.8888204 L14.1540523,18.8888204 L14.1540523,13.6778896 L11.6532624,13.6778896 Z"/>
  </defs>
  <g fill-rule="evenodd" transform="translate(2 2)">
    <g fill-rule="nonzero">
      <use xlink:href="#admin-listing-icon-a"/>
      <use filter="url(#admin-listing-icon-b)" xlink:href="#admin-listing-icon-a"/>
    </g>
  </g>
</svg>
